<?xml version="1.0" standalone="no"?>
<!DOCTYPE svg PUBLIC "-//W3C//DTD SVG 20010904//EN"
 "http://www.w3.org/TR/2001/REC-SVG-20010904/DTD/svg10.dtd">
<svg version="1.0" xmlns="http://www.w3.org/2000/svg"
 width="1248.000000pt" height="1300.000000pt" viewBox="0 0 1248.000000 1300.000000"
 preserveAspectRatio="xMidYMid meet">

<g transform="translate(0.000000,1300.000000) scale(0.100000,-0.100000)"
fill="#000000" stroke="none">
<path d="M9855 12949 c-4 -6 -5 -12 -2 -15 2 -3 7 2 10 11 7 17 1 20 -8 4z"/>
<path d="M451 12264 c0 -11 3 -14 6 -6 3 7 2 16 -1 19 -3 4 -6 -2 -5 -13z"/>
<path d="M7357 12189 c7 -7 15 -10 18 -7 3 3 -2 9 -12 12 -14 6 -15 5 -6 -5z"/>
<path d="M12330 12176 c0 -2 7 -7 16 -10 8 -3 12 -2 9 4 -6 10 -25 14 -25 6z"/>
<path d="M590 12106 c0 -2 7 -7 16 -10 8 -3 12 -2 9 4 -6 10 -25 14 -25 6z"/>
<path d="M937 12029 c7 -7 15 -10 18 -7 3 3 -2 9 -12 12 -14 6 -15 5 -6 -5z"/>
<path d="M8586 11965 c-3 -8 -1 -15 4 -15 6 0 10 7 10 15 0 8 -2 15 -4 15 -2
0 -6 -7 -10 -15z"/>
<path d="M8656 11623 c-6 -14 -5 -15 5 -6 7 7 10 15 7 18 -3 3 -9 -2 -12 -12z"/>
<path d="M590 11590 c0 -5 5 -10 11 -10 5 0 7 5 4 10 -3 6 -8 10 -11 10 -2 0
-4 -4 -4 -10z"/>
<path d="M8630 11559 c0 -5 5 -7 10 -4 6 3 10 8 10 11 0 2 -4 4 -10 4 -5 0
-10 -5 -10 -11z"/>
<path d="M11910 11496 c0 -2 8 -10 18 -17 15 -13 16 -12 3 4 -13 16 -21 21
-21 13z"/>
<path d="M786 11452 c-3 -5 1 -9 9 -9 8 0 12 4 9 9 -3 4 -7 8 -9 8 -2 0 -6 -4
-9 -8z"/>
<path d="M12005 11400 c-3 -6 1 -7 9 -4 18 7 21 14 7 14 -6 0 -13 -4 -16 -10z"/>
<path d="M1195 11260 c3 -5 8 -10 11 -10 2 0 4 5 4 10 0 6 -5 10 -11 10 -5 0
-7 -4 -4 -10z"/>
<path d="M8835 11069 c-4 -6 -5 -12 -2 -15 2 -3 7 2 10 11 7 17 1 20 -8 4z"/>
<path d="M8970 11020 c0 -5 5 -10 11 -10 5 0 7 5 4 10 -3 6 -8 10 -11 10 -2 0
-4 -4 -4 -10z"/>
<path d="M9081 10994 c0 -11 3 -14 6 -6 3 7 2 16 -1 19 -3 4 -6 -2 -5 -13z"/>
<path d="M1664 10974 c-18 -14 -18 -15 4 -4 12 6 22 13 22 15 0 8 -5 6 -26
-11z"/>
<path d="M5510 10970 c0 -5 5 -10 11 -10 5 0 7 5 4 10 -3 6 -8 10 -11 10 -2 0
-4 -4 -4 -10z"/>
<path d="M5616 10972 c-2 -4 -1 -14 4 -22 7 -11 9 -9 7 8 -1 24 -3 26 -11 14z"/>
<path d="M5487 10949 c7 -7 15 -10 18 -7 3 3 -2 9 -12 12 -14 6 -15 5 -6 -5z"/>
<path d="M5535 10940 c3 -5 8 -10 11 -10 2 0 4 5 4 10 0 6 -5 10 -11 10 -5 0
-7 -4 -4 -10z"/>
<path d="M9130 10940 c0 -5 5 -10 11 -10 5 0 7 5 4 10 -3 6 -8 10 -11 10 -2 0
-4 -4 -4 -10z"/>
<path d="M5718 10933 c6 -2 9 -10 6 -15 -4 -7 -2 -8 5 -4 13 9 5 26 -12 25 -9
0 -8 -2 1 -6z"/>
<path d="M5428 10908 c-10 -10 -14 -18 -9 -18 10 0 36 29 30 34 -2 1 -12 -6
-21 -16z"/>
<path d="M5745 10911 c-3 -7 0 -8 9 -5 21 8 20 -5 -1 -30 -14 -16 -14 -18 -2
-8 9 6 18 9 21 7 3 -3 5 4 4 16 -1 24 -20 36 -31 20z"/>
<path d="M8830 10909 c0 -5 5 -7 10 -4 6 3 10 8 10 11 0 2 -4 4 -10 4 -5 0
-10 -5 -10 -11z"/>
<path d="M5699 10878 c-5 -18 -6 -38 -1 -34 7 8 12 36 6 36 -2 0 -4 -1 -5 -2z"/>
<path d="M9155 10840 c-3 -6 1 -7 9 -4 18 7 21 14 7 14 -6 0 -13 -4 -16 -10z"/>
<path d="M5846 10822 c-2 -4 -1 -14 4 -22 7 -11 9 -9 7 8 -1 24 -3 26 -11 14z"/>
<path d="M5227 10799 c7 -7 15 -10 18 -7 3 3 -2 9 -12 12 -14 6 -15 5 -6 -5z"/>
<path d="M5336 10798 c3 -5 10 -6 15 -3 13 9 11 12 -6 12 -8 0 -12 -4 -9 -9z"/>
<path d="M5180 10790 c-9 -6 -10 -10 -3 -10 6 0 15 5 18 10 8 12 4 12 -15 0z"/>
<path d="M12235 10790 c3 -5 8 -10 11 -10 2 0 4 5 4 10 0 6 -5 10 -11 10 -5 0
-7 -4 -4 -10z"/>
<path d="M5861 10773 c-11 -12 -11 -17 -1 -26 10 -9 11 -9 6 0 -3 6 1 16 10
21 9 5 13 12 8 15 -5 3 -15 -2 -23 -10z"/>
<path d="M8975 10770 c3 -5 8 -10 11 -10 2 0 4 5 4 10 0 6 -5 10 -11 10 -5 0
-7 -4 -4 -10z"/>
<path d="M5930 10716 c0 -2 7 -7 16 -10 8 -3 12 -2 9 4 -6 10 -25 14 -25 6z"/>
<path d="M12285 10700 c3 -5 8 -10 11 -10 2 0 4 5 4 10 0 6 -5 10 -11 10 -5 0
-7 -4 -4 -10z"/>
<path d="M5048 10693 c7 -3 16 -2 19 1 4 3 -2 6 -13 5 -11 0 -14 -3 -6 -6z"/>
<path d="M4960 10663 c0 -19 18 -25 37 -13 17 11 16 11 -1 5 -11 -3 -23 0 -28
7 -5 9 -8 10 -8 1z"/>
<path d="M5987 10660 c18 -20 43 -22 35 -2 -4 11 -7 12 -10 4 -3 -10 -7 -10
-20 0 -14 10 -15 10 -5 -2z"/>
<path d="M5070 10651 c0 -6 4 -13 10 -16 6 -3 7 1 4 9 -7 18 -14 21 -14 7z"/>
<path d="M5598 10643 c7 -3 16 -2 19 1 4 3 -2 6 -13 5 -11 0 -14 -3 -6 -6z"/>
<path d="M5671 10610 c45 -62 45 -62 45 -41 0 11 -4 19 -8 18 -3 -1 -21 14
-38 33 l-32 35 33 -45z"/>
<path d="M5407 10633 c-4 -3 -7 -11 -7 -17 0 -6 5 -5 12 2 6 6 9 14 7 17 -3 3
-9 2 -12 -2z"/>
<path d="M5465 10630 c-3 -5 -1 -10 4 -10 6 0 11 5 11 10 0 6 -2 10 -4 10 -3
0 -8 -4 -11 -10z"/>
<path d="M4923 10615 c0 -8 4 -12 9 -9 5 3 6 10 3 15 -9 13 -12 11 -12 -6z"/>
<path d="M5400 10598 c0 -3 6 -11 14 -17 10 -9 17 -7 27 6 12 16 12 17 -2 6
-12 -10 -18 -10 -27 -1 -7 7 -12 9 -12 6z"/>
<path d="M4886 10577 c3 -10 9 -15 12 -12 3 3 0 11 -7 18 -10 9 -11 8 -5 -6z"/>
<path d="M6070 10579 c0 -5 4 -8 9 -4 5 3 12 1 16 -5 3 -5 1 -10 -6 -10 -7 0
-10 -3 -6 -6 3 -3 11 -3 17 1 8 5 8 11 -1 21 -14 17 -29 18 -29 3z"/>
<path d="M5366 10572 c-3 -5 1 -9 9 -9 8 0 15 4 15 9 0 4 -4 8 -9 8 -6 0 -12
-4 -15 -8z"/>
<path d="M4809 10543 c-6 -7 -16 -10 -22 -6 -5 3 -7 1 -4 -4 9 -15 -19 -36
-35 -27 -10 6 -10 4 0 -9 12 -14 17 -13 44 19 16 18 34 32 38 29 5 -3 11 -2
14 3 8 14 -23 10 -35 -5z"/>
<path d="M5307 10529 c-4 -16 -3 -18 9 -8 7 6 11 15 8 20 -8 13 -11 11 -17
-12z"/>
<path d="M6105 10540 c-3 -5 -3 -10 2 -10 4 0 1 -5 -7 -11 -12 -8 -12 -10 -1
-7 8 2 15 12 17 21 3 19 -2 22 -11 7z"/>
<path d="M6195 10541 c-3 -5 -2 -12 3 -15 5 -3 9 1 9 9 0 17 -3 19 -12 6z"/>
<path d="M6333 10515 c0 -8 4 -12 9 -9 5 3 6 10 3 15 -9 13 -12 11 -12 -6z"/>
<path d="M6137 10493 c3 -7 6 -13 8 -13 2 0 5 6 8 13 3 8 -1 14 -8 14 -7 0
-11 -6 -8 -14z"/>
<path d="M4716 10478 c3 -5 10 -6 15 -3 13 9 11 12 -6 12 -8 0 -12 -4 -9 -9z"/>
<path d="M5253 10474 c0 -16 13 -19 21 -5 3 5 0 11 -7 14 -8 3 -14 -1 -14 -9z"/>
<path d="M4663 10445 c0 -8 4 -12 9 -9 5 3 6 10 3 15 -9 13 -12 11 -12 -6z"/>
<path d="M5011 10434 c0 -11 3 -14 6 -6 3 7 2 16 -1 19 -3 4 -6 -2 -5 -13z"/>
<path d="M5126 10397 c3 -10 9 -15 12 -12 3 3 0 11 -7 18 -10 9 -11 8 -5 -6z"/>
<path d="M6445 10400 c-3 -6 1 -7 9 -4 18 7 21 14 7 14 -6 0 -13 -4 -16 -10z"/>
<path d="M5070 10391 c0 -5 5 -13 10 -16 6 -3 10 -2 10 4 0 5 -4 13 -10 16 -5
3 -10 2 -10 -4z"/>
<path d="M6240 10380 c13 -24 17 -25 17 -5 0 8 -6 16 -14 19 -11 4 -11 1 -3
-14z"/>
<path d="M6375 10390 c6 -10 4 -12 -11 -6 -15 6 -17 5 -6 -5 9 -9 15 -10 23
-2 8 8 7 13 -2 18 -8 6 -10 4 -4 -5z"/>
<path d="M4546 10382 c-2 -4 -1 -14 3 -21 6 -10 10 -9 14 3 6 16 -8 32 -17 18z"/>
<path d="M5883 10375 c0 -8 4 -12 9 -9 5 3 6 10 3 15 -9 13 -12 11 -12 -6z"/>
<path d="M6275 10349 c-4 -6 -4 -13 -1 -16 3 -4 6 -1 6 7 0 10 4 10 18 -1 15
-13 16 -12 3 4 -16 20 -18 20 -26 6z"/>
<path d="M6384 10349 c-4 -7 -3 -9 4 -5 5 3 13 0 15 -6 4 -9 6 -10 6 -1 1 17
-16 25 -25 12z"/>
<path d="M6067 10339 c7 -7 15 -10 18 -7 3 3 -2 9 -12 12 -14 6 -15 5 -6 -5z"/>
<path d="M4962 10298 c-15 -15 -15 -28 0 -28 6 0 8 3 5 7 -4 3 -2 12 4 20 14
16 7 17 -9 1z"/>
<path d="M5950 10301 c0 -10 19 -25 25 -20 1 2 -3 10 -11 17 -8 7 -14 8 -14 3z"/>
<path d="M6540 10304 c0 -1 13 -12 29 -24 19 -13 32 -17 36 -10 4 6 3 10 -2 9
-13 -3 -43 13 -38 20 2 4 -2 8 -10 8 -8 0 -15 -2 -15 -3z"/>
<path d="M6128 10293 c7 -3 16 -2 19 1 4 3 -2 6 -13 5 -11 0 -14 -3 -6 -6z"/>
<path d="M6332 10278 c3 -7 14 -14 26 -14 12 -1 19 2 16 7 -2 4 -12 5 -21 2
-11 -4 -14 -3 -9 5 4 7 2 12 -4 12 -7 0 -10 -6 -8 -12z"/>
<path d="M6440 10286 c0 -2 8 -10 18 -17 15 -13 16 -12 3 4 -13 16 -21 21 -21
13z"/>
<path d="M12203 10255 c0 -7 6 -11 14 -8 7 3 13 6 13 8 0 2 -6 5 -13 8 -8 3
-14 -1 -14 -8z"/>
<path d="M6607 10239 c7 -7 15 -10 18 -7 3 3 -2 9 -12 12 -14 6 -15 5 -6 -5z"/>
<path d="M6015 10220 c10 -11 20 -20 23 -20 3 0 -3 9 -13 20 -10 11 -20 20
-23 20 -3 0 3 -9 13 -20z"/>
<path d="M7875 10191 c-2 -5 -23 -11 -45 -15 -40 -6 -57 -26 -21 -23 11 0 17
5 14 9 -2 5 7 6 21 2 16 -4 26 -2 26 5 0 6 13 9 33 7 26 -2 34 -9 44 -37 9
-25 12 -28 12 -12 1 12 5 23 11 25 6 2 6 8 0 18 -8 12 -10 12 -10 -5 -1 -18
-1 -19 -11 -2 -5 9 -8 20 -5 25 2 4 -11 8 -30 9 -18 1 -36 -2 -39 -6z"/>
<path d="M8030 10169 c-13 -9 -13 -10 1 -6 9 3 31 -3 48 -14 36 -22 49 -25 29
-6 -13 11 -55 37 -60 37 -2 0 -10 -5 -18 -11z"/>
<path d="M6454 10159 c-3 -6 2 -18 12 -27 17 -16 17 -16 5 0 -7 9 -10 22 -6
28 3 5 4 10 1 10 -3 0 -8 -5 -12 -11z"/>
<path d="M7764 10145 c5 -15 4 -16 -9 -5 -11 9 -15 9 -15 1 0 -7 -4 -10 -9 -7
-12 8 -72 -14 -66 -24 7 -11 -31 -23 -45 -15 -14 9 -92 -14 -85 -25 4 -6 13
-10 21 -10 9 0 12 5 8 12 -5 8 0 9 14 6 12 -4 22 -2 22 3 0 5 5 9 11 9 5 0 7
-5 4 -10 -4 -7 3 -9 22 -4 56 12 68 17 84 31 9 7 29 16 45 19 38 7 40 10 13
24 -19 11 -21 10 -15 -5z m-49 -35 c-3 -5 -10 -10 -16 -10 -5 0 -9 5 -9 10 0
6 7 10 16 10 8 0 12 -4 9 -10z"/>
<path d="M7971 10124 c0 -11 3 -14 6 -6 3 7 2 16 -1 19 -3 4 -6 -2 -5 -13z"/>
<path d="M4723 10123 c4 -3 1 -13 -6 -22 -11 -14 -10 -14 5 -2 16 12 16 31 1
31 -4 0 -3 -3 0 -7z"/>
<path d="M4685 10110 c-3 -5 -2 -10 4 -10 5 0 13 5 16 10 3 6 2 10 -4 10 -5 0
-13 -4 -16 -10z"/>
<path d="M8121 10094 c0 -11 3 -14 6 -6 3 7 2 16 -1 19 -3 4 -6 -2 -5 -13z"/>
<path d="M4591 10084 c0 -11 3 -14 6 -6 3 7 2 16 -1 19 -3 4 -6 -2 -5 -13z"/>
<path d="M7977 10086 c-9 -24 -9 -28 3 -21 18 11 10 -12 -11 -31 -17 -15 -22
-16 -29 -4 -5 8 -12 11 -16 7 -13 -13 13 -29 34 -23 12 4 26 20 33 35 9 19 18
27 28 24 14 -4 14 -3 1 5 -8 6 -17 9 -21 6 -4 -2 -9 1 -11 8 -3 7 -7 5 -11 -6z"/>
<path d="M7490 10069 c12 -8 8 -9 -16 -5 -44 7 -71 -2 -78 -27 -6 -22 9 -47
28 -47 6 0 3 5 -6 11 -18 10 -25 30 -10 28 4 -1 9 0 12 1 3 1 12 3 20 5 8 2
29 8 47 13 17 6 34 7 38 4 3 -4 3 1 -1 11 -3 9 -16 17 -28 17 -17 0 -19 -2 -6
-11z m-50 -22 c-14 -8 -27 -12 -30 -10 -7 6 23 23 40 23 8 0 4 -6 -10 -13z"/>
<path d="M6170 10061 c0 -5 5 -13 10 -16 6 -3 10 -2 10 4 0 5 -4 13 -10 16 -5
3 -10 2 -10 -4z"/>
<path d="M6540 10061 c0 -6 4 -13 10 -16 6 -3 7 1 4 9 -7 18 -14 21 -14 7z"/>
<path d="M8026 10052 c6 -4 17 -25 26 -46 13 -34 16 -36 21 -17 3 14 0 24 -9
28 -8 3 -12 13 -9 22 3 12 -1 17 -17 18 -13 1 -18 -1 -12 -5z"/>
<path d="M8146 10024 c-4 -9 -4 -19 -1 -22 2 -3 7 3 11 12 4 9 4 19 1 22 -2 3
-7 -3 -11 -12z"/>
<path d="M7880 10010 c0 -5 -15 -7 -33 -5 -25 3 -34 1 -34 -10 0 -9 7 -13 16
-11 9 3 33 8 54 12 27 5 35 9 25 15 -17 11 -28 11 -28 -1z"/>
<path d="M6493 9998 c-6 -7 -7 -22 -4 -32 7 -17 8 -18 14 -3 4 10 1 17 -6 17
-8 0 -7 4 3 10 8 5 12 12 9 15 -4 3 -11 0 -16 -7z"/>
<path d="M4462 9980 c0 -14 2 -19 5 -12 2 6 2 18 0 25 -3 6 -5 1 -5 -13z"/>
<path d="M4537 9981 c-4 -17 -3 -21 5 -13 5 5 8 16 6 23 -3 8 -7 3 -11 -10z"/>
<path d="M6663 9961 c-15 -19 -19 -32 -12 -42 6 -10 9 -10 9 -1 0 6 -1 14 -2
16 -2 2 6 13 16 25 11 12 17 23 15 25 -2 2 -14 -9 -26 -23z"/>
<path d="M7746 9978 c5 -7 -1 -9 -18 -5 -15 4 -33 0 -47 -9 -12 -9 -25 -13
-28 -10 -8 8 -43 -13 -43 -26 0 -6 8 -4 18 5 10 10 21 14 25 11 3 -3 12 -2 19
2 7 5 29 10 48 11 19 1 36 7 38 12 2 5 11 7 20 4 9 -3 14 -3 11 1 -11 12 -50
16 -43 4z"/>
<path d="M7412 9968 c2 -6 10 -13 16 -14 7 -1 8 0 2 3 -5 2 -8 9 -4 14 3 5 0
9 -6 9 -7 0 -10 -5 -8 -12z"/>
<path d="M4500 9966 c0 -2 8 -10 18 -17 15 -13 16 -12 3 4 -13 16 -21 21 -21
13z"/>
<path d="M7340 9955 c-20 -24 -6 -28 15 -5 10 11 13 20 8 20 -6 0 -16 -7 -23
-15z"/>
<path d="M8156 9962 c-3 -5 1 -15 9 -22 16 -14 20 -3 6 19 -5 8 -11 9 -15 3z"/>
<path d="M8065 9950 c3 -5 10 -10 16 -10 5 0 9 5 9 10 0 6 -7 10 -16 10 -8 0
-12 -4 -9 -10z"/>
<path d="M4476 9938 c3 -5 10 -6 15 -3 13 9 11 12 -6 12 -8 0 -12 -4 -9 -9z"/>
<path d="M6500 9935 c0 -7 30 -13 34 -7 3 4 -4 9 -15 9 -10 1 -19 0 -19 -2z"/>
<path d="M7414 9923 c-7 -11 -8 -36 -5 -63 6 -39 8 -42 15 -22 4 13 5 26 2 29
-3 3 0 15 5 26 9 15 13 17 20 6 4 -7 11 -10 16 -6 16 17 -21 26 -39 10 -23
-20 -24 -6 -1 19 9 10 12 18 7 18 -5 0 -14 -8 -20 -17z"/>
<path d="M7584 9932 c5 -8 -2 -12 -21 -12 -20 0 -24 -3 -14 -9 15 -10 51 -3
51 10 0 4 -5 11 -12 15 -7 4 -8 3 -4 -4z"/>
<path d="M6270 9925 c0 -2 6 -8 13 -14 10 -8 14 -7 14 2 0 8 -6 14 -14 14 -7
0 -13 -1 -13 -2z"/>
<path d="M6536 9911 c-3 -5 1 -11 9 -14 9 -4 12 -1 8 9 -6 16 -10 17 -17 5z"/>
<path d="M8093 9875 c0 -27 2 -38 4 -22 2 15 2 37 0 50 -2 12 -4 0 -4 -28z"/>
<path d="M8168 9895 c2 -14 9 -25 14 -25 5 0 6 -4 3 -10 -3 -5 -1 -10 4 -10
14 0 14 1 -5 38 -19 39 -23 40 -16 7z"/>
<path d="M7480 9900 c0 -6 7 -10 15 -10 8 0 15 2 15 4 0 2 -7 6 -15 10 -8 3
-15 1 -15 -4z"/>
<path d="M6585 9860 c3 -5 8 -10 11 -10 2 0 4 5 4 10 0 6 -5 10 -11 10 -5 0
-7 -4 -4 -10z"/>
<path d="M6345 9851 c-3 -5 -2 -12 3 -15 5 -3 9 1 9 9 0 17 -3 19 -12 6z"/>
<path d="M6730 9830 c0 -5 5 -10 11 -10 5 0 7 5 4 10 -3 6 -8 10 -11 10 -2 0
-4 -4 -4 -10z"/>
<path d="M8190 9836 c0 -18 24 -76 32 -76 4 0 8 1 8 3 0 9 -39 81 -40 73z"/>
<path d="M7427 9807 c-11 -29 -9 -43 4 -30 6 6 9 19 7 29 -3 18 -4 18 -11 1z"/>
<path d="M8107 9785 c7 -49 13 -58 13 -19 0 16 -5 36 -10 44 -6 10 -7 2 -3
-25z"/>
<path d="M7340 9778 c0 -19 2 -20 10 -8 13 19 13 30 0 30 -5 0 -10 -10 -10
-22z"/>
<path d="M6426 9762 c-3 -5 1 -9 9 -9 8 0 12 4 9 9 -3 4 -7 8 -9 8 -2 0 -6 -4
-9 -8z"/>
<path d="M7357 9746 c-6 -15 13 -66 25 -66 5 0 -9 70 -17 78 -1 2 -5 -4 -8
-12z"/>
<path d="M7426 9744 c-9 -23 -7 -36 4 -29 6 4 10 -7 10 -27 0 -18 6 -55 14
-83 7 -27 11 -56 9 -62 -3 -7 0 -13 6 -13 6 0 7 -7 4 -17 -4 -11 -3 -14 5 -9
15 9 16 36 2 36 -5 0 -9 3 -9 8 5 27 -2 102 -9 98 -4 -2 -9 11 -10 30 -5 69
-7 84 -13 84 -4 0 -10 -7 -13 -16z"/>
<path d="M6826 9732 c-2 -4 -1 -14 4 -22 7 -11 9 -9 7 8 -1 24 -3 26 -11 14z"/>
<path d="M8128 9703 c5 -21 7 -23 10 -9 2 10 0 22 -6 28 -6 6 -7 0 -4 -19z"/>
<path d="M4445 9711 c-3 -5 -2 -12 3 -15 5 -3 9 1 9 9 0 17 -3 19 -12 6z"/>
<path d="M8220 9702 c0 -12 4 -22 8 -22 5 0 9 -12 10 -27 2 -51 7 -63 29 -63
4 0 2 5 -5 12 -7 7 -12 28 -12 48 0 19 -7 44 -15 54 -15 19 -15 19 -15 -2z"/>
<path d="M6080 9679 c0 -5 5 -7 10 -4 6 3 10 8 10 11 0 2 -4 4 -10 4 -5 0 -10
-5 -10 -11z"/>
<path d="M6490 9666 c0 -2 8 -10 18 -17 15 -13 16 -12 3 4 -13 16 -21 21 -21
13z"/>
<path d="M6534 9640 c0 -13 4 -16 10 -10 7 7 7 13 0 20 -6 6 -10 3 -10 -10z"/>
<path d="M7380 9629 c0 -11 7 -27 15 -35 13 -14 15 -14 15 0 0 9 -5 16 -11 16
-6 0 -9 9 -6 20 3 11 1 20 -4 20 -5 0 -9 -9 -9 -21z"/>
<path d="M4506 9628 c3 -4 9 -8 15 -8 5 0 9 4 9 8 0 5 -7 9 -15 9 -8 0 -12 -4
-9 -9z"/>
<path d="M8132 9620 c0 -14 2 -19 5 -12 2 6 2 18 0 25 -3 6 -5 1 -5 -13z"/>
<path d="M6080 9616 c0 -2 7 -9 15 -16 13 -11 14 -10 9 4 -5 14 -24 23 -24 12z"/>
<path d="M5626 9583 c-6 -14 -5 -15 5 -6 7 7 10 15 7 18 -3 3 -9 -2 -12 -12z"/>
<path d="M6566 9591 c-3 -5 3 -20 15 -32 l20 -24 -15 26 c-9 14 -13 29 -9 32
3 4 4 7 0 7 -3 0 -8 -4 -11 -9z"/>
<path d="M8140 9566 c0 -9 4 -16 9 -16 5 0 9 -13 9 -29 -1 -32 8 -51 25 -51 8
0 8 3 2 8 -5 4 -10 21 -11 39 -1 33 -34 80 -34 49z"/>
<path d="M4560 9567 c0 -2 6 -10 14 -16 11 -9 16 -9 22 1 4 7 4 10 -1 6 -4 -4
-14 -3 -22 3 -7 6 -13 9 -13 6z"/>
<path d="M6615 9540 c2 -27 10 -33 12 -10 1 11 -2 22 -6 24 -4 3 -7 -4 -6 -14z"/>
<path d="M8255 9543 c3 -10 9 -39 12 -65 6 -49 33 -90 33 -50 0 11 -4 22 -9
24 -7 2 -17 52 -20 101 -1 4 -6 7 -12 7 -7 0 -8 -7 -4 -17z"/>
<path d="M7402 9530 c0 -14 2 -19 5 -12 2 6 2 18 0 25 -3 6 -5 1 -5 -13z"/>
<path d="M5880 9526 c0 -2 7 -9 15 -16 9 -7 15 -8 15 -2 0 5 -7 12 -15 16 -8
3 -15 4 -15 2z"/>
<path d="M6644 9500 c0 -13 4 -16 10 -10 7 7 7 13 0 20 -6 6 -10 3 -10 -10z"/>
<path d="M7425 9475 c5 -94 4 -90 17 -77 8 8 8 15 -2 26 -7 9 -10 22 -7 30 3
8 2 27 -3 43 -6 22 -7 18 -5 -22z"/>
<path d="M7487 9494 c-4 -4 -7 -19 -6 -33 l0 -26 10 24 c10 26 8 47 -4 35z"/>
<path d="M4624 9472 c23 -26 22 -26 30 -6 3 9 2 12 -5 9 -5 -4 -18 -1 -27 6
-13 11 -12 8 2 -9z"/>
<path d="M5735 9460 c3 -5 8 -10 11 -10 2 0 4 5 4 10 0 6 -5 10 -11 10 -5 0
-7 -4 -4 -10z"/>
<path d="M6680 9459 c0 -5 -6 -7 -12 -3 -7 4 -10 3 -5 -1 4 -5 16 -9 27 -10
15 -1 17 1 9 12 -14 16 -19 17 -19 2z"/>
<path d="M8170 9432 c0 -11 6 -22 13 -25 9 -3 13 2 12 16 -2 27 -25 35 -25 9z"/>
<path d="M4676 9432 c-3 -5 1 -9 9 -9 8 0 12 4 9 9 -3 4 -7 8 -9 8 -2 0 -6 -4
-9 -8z"/>
<path d="M6710 9395 c7 -8 16 -12 21 -10 4 3 12 -3 18 -12 6 -10 11 -13 11 -7
0 15 -25 36 -33 27 -4 -3 -7 -1 -7 5 0 7 -5 12 -11 12 -8 0 -8 -5 1 -15z"/>
<path d="M7511 9400 c0 -8 4 -22 9 -30 12 -18 12 -2 0 25 -6 13 -9 15 -9 5z"/>
<path d="M8286 9384 c-9 -23 -7 -31 3 -15 6 9 9 0 9 -25 0 -22 4 -60 9 -86 6
-39 11 -46 23 -38 13 9 13 11 1 19 -8 5 -12 18 -8 30 3 12 1 21 -4 21 -5 0 -9
25 -9 55 0 53 -11 72 -24 39z"/>
<path d="M8197 9357 c-6 -36 2 -89 12 -83 6 4 10 -22 13 -81 1 -18 6 -29 11
-26 5 3 6 -8 2 -27 -5 -22 -4 -30 4 -26 6 4 10 -4 9 -21 0 -28 3 -46 23 -135
10 -45 29 -66 29 -33 0 8 -4 15 -8 15 -5 0 -9 18 -10 41 -1 22 -6 48 -11 58
-6 10 -9 26 -9 37 1 10 -3 42 -10 69 -6 28 -14 71 -17 98 -3 26 -11 47 -17 47
-6 0 -8 9 -5 20 3 11 1 18 -3 15 -5 -3 -6 10 -3 30 3 19 3 35 1 35 -3 0 -8
-15 -11 -33z"/>
<path d="M6331 9364 c0 -11 3 -14 6 -6 3 7 2 16 -1 19 -3 4 -6 -2 -5 -13z"/>
<path d="M7445 9348 c2 -18 3 -39 4 -45 1 -7 6 -13 12 -13 8 0 9 13 4 38 -9
48 -24 64 -20 20z"/>
<path d="M4728 9343 c31 -44 49 -57 58 -42 4 7 3 9 -3 6 -11 -7 -36 16 -28 25
3 3 -6 13 -21 23 l-27 18 21 -30z"/>
<path d="M6130 9366 c0 -2 7 -9 15 -16 13 -11 14 -10 9 4 -5 14 -24 23 -24 12z"/>
<path d="M6850 9361 c0 -7 -4 -10 -9 -7 -5 4 -7 -4 -3 -16 l5 -22 9 24 c5 12
6 25 3 28 -3 3 -5 0 -5 -7z"/>
<path d="M5856 9333 c-6 -14 -5 -15 5 -6 7 7 10 15 7 18 -3 3 -9 -2 -12 -12z"/>
<path d="M7515 9340 c-3 -5 -3 -16 2 -22 16 -26 31 -81 26 -97 -4 -14 -3 -14
7 -1 9 12 10 10 6 -12 -4 -18 -2 -28 5 -28 6 0 8 -7 5 -16 -4 -10 -2 -13 6 -8
7 5 9 2 5 -9 -3 -9 0 -18 9 -21 18 -7 19 -13 -19 101 -19 54 -32 104 -30 111
5 14 -13 16 -22 2z"/>
<path d="M5553 9331 c1 -3 -5 -17 -12 -29 -7 -13 -10 -26 -8 -29 3 -2 8 5 12
16 4 13 11 19 18 15 7 -4 9 -4 5 1 -4 4 -3 13 2 20 7 8 5 12 -5 12 -7 0 -13
-3 -12 -6z"/>
<path d="M5776 9327 c3 -10 9 -15 12 -12 3 3 0 11 -7 18 -10 9 -11 8 -5 -6z"/>
<path d="M5820 9330 c-9 -6 -10 -10 -3 -10 6 0 15 5 18 10 8 12 4 12 -15 0z"/>
<path d="M5965 9299 c-10 -30 -2 -32 12 -3 6 13 7 24 3 24 -5 0 -12 -9 -15
-21z"/>
<path d="M7461 9263 c0 -10 4 -27 9 -38 6 -16 8 -14 7 13 0 18 -4 35 -9 38 -4
3 -8 -3 -7 -13z"/>
<path d="M4830 9226 c7 -7 13 -7 20 0 6 6 3 10 -10 10 -13 0 -16 -4 -10 -10z"/>
<path d="M5936 9223 c-6 -14 -5 -15 5 -6 7 7 10 15 7 18 -3 3 -9 -2 -12 -12z"/>
<path d="M5523 9215 c0 -8 4 -15 9 -15 4 0 8 7 8 15 0 8 -4 15 -8 15 -5 0 -9
-7 -9 -15z"/>
<path d="M6770 9196 c0 -2 7 -7 16 -10 8 -3 12 -2 9 4 -6 10 -25 14 -25 6z"/>
<path d="M8333 9175 c-6 -14 -7 -23 -2 -20 5 4 7 -9 4 -27 l-5 -33 11 34 c5
18 9 42 7 52 -3 16 -5 15 -15 -6z"/>
<path d="M5768 9183 c6 -2 18 -2 25 0 6 3 1 5 -13 5 -14 0 -19 -2 -12 -5z"/>
<path d="M5830 9180 c8 -5 24 -10 35 -10 17 0 17 2 5 10 -8 5 -24 10 -35 10
-17 0 -17 -2 -5 -10z"/>
<path d="M4916 9133 c-6 -14 -5 -15 5 -6 7 7 10 15 7 18 -3 3 -9 -2 -12 -12z"/>
<path d="M7490 9133 c0 -5 5 -15 10 -23 8 -12 10 -11 10 8 0 12 -4 22 -10 22
-5 0 -10 -3 -10 -7z"/>
<path d="M6490 9099 c-7 -11 -10 -23 -7 -25 2 -2 9 7 15 21 14 30 7 33 -8 4z"/>
<path d="M7591 9100 c0 -8 4 -22 9 -30 12 -18 12 -2 0 25 -6 13 -9 15 -9 5z"/>
<path d="M8351 9077 c-1 -43 18 -127 28 -127 4 0 6 -12 4 -27 -3 -16 1 -41 8
-58 7 -16 13 -34 14 -40 0 -5 4 -16 9 -24 6 -10 5 -12 -3 -7 -8 6 -8 1 1 -18
6 -14 15 -26 19 -26 10 0 1 56 -12 82 -5 9 -9 28 -9 42 0 14 -5 28 -11 31 -6
4 -8 13 -5 21 3 7 -1 32 -9 55 -8 23 -12 46 -8 52 4 6 1 7 -7 2 -10 -6 -12 -2
-7 16 3 13 1 33 -3 44 -7 16 -9 12 -9 -18z"/>
<path d="M6115 9089 c-6 -8 -4 -10 5 -4 10 6 12 4 6 -11 -6 -15 -5 -17 5 -6 9
9 10 15 2 23 -8 8 -13 7 -18 -2z"/>
<path d="M7526 9055 c6 -39 11 -52 17 -44 2 2 -2 22 -10 44 l-13 40 6 -40z"/>
<path d="M5880 9076 c0 -2 8 -10 18 -17 15 -13 16 -12 3 4 -13 16 -21 21 -21
13z"/>
<path d="M6437 9063 c-3 -5 -1 -15 5 -23 8 -12 9 -12 4 3 -6 18 9 24 17 7 3
-6 4 -5 3 2 -3 15 -22 22 -29 11z"/>
<path d="M5777 9042 c-20 -21 -22 -32 -6 -32 5 0 7 5 4 10 -3 6 -2 10 3 10 6
0 12 7 16 15 7 20 3 19 -17 -3z"/>
<path d="M7607 9033 c-11 -10 -8 -25 3 -18 6 4 7 -5 4 -23 -6 -30 9 -51 22
-31 5 8 3 9 -6 4 -9 -6 -11 0 -6 21 6 30 -5 60 -17 47z"/>
<path d="M6208 9013 c7 -3 16 -2 19 1 4 3 -2 6 -13 5 -11 0 -14 -3 -6 -6z"/>
<path d="M6300 9006 c0 -2 8 -10 18 -17 15 -13 16 -12 3 4 -13 16 -21 21 -21
13z"/>
<path d="M5955 8991 c-3 -5 -2 -12 3 -15 5 -3 9 1 9 9 0 17 -3 19 -12 6z"/>
<path d="M7537 8980 c3 -11 9 -17 15 -14 5 3 4 12 -3 20 -16 19 -18 18 -12 -6z"/>
<path d="M5820 8979 c0 -5 5 -7 10 -4 6 3 10 8 10 11 0 2 -4 4 -10 4 -5 0 -10
-5 -10 -11z"/>
<path d="M5706 8964 c-9 -8 -16 -20 -16 -26 0 -6 1 -9 3 -7 1 2 11 14 21 27
22 25 16 30 -8 6z"/>
<path d="M6559 8944 c-15 -19 -21 -47 -8 -38 5 3 7 9 4 14 -7 11 20 32 30 22
5 -4 5 -1 1 6 -9 15 -11 15 -27 -4z"/>
<path d="M5097 8943 c-4 -3 5 -17 19 -30 14 -12 23 -27 20 -32 -3 -5 2 -15 12
-22 14 -11 15 -11 5 0 -6 7 -9 19 -7 26 3 7 -6 22 -20 32 -14 11 -22 23 -19
27 3 3 4 6 1 6 -2 0 -8 -3 -11 -7z"/>
<path d="M7555 8920 c3 -14 7 -29 9 -35 1 -5 6 -26 10 -45 9 -36 36 -84 36
-63 0 7 -4 14 -9 17 -4 3 -7 16 -4 28 2 13 -8 46 -22 73 -14 28 -23 39 -20 25z"/>
<path d="M7634 8917 c0 -13 6 -24 13 -24 9 0 9 6 1 21 -15 30 -16 30 -14 3z"/>
<path d="M5707 8915 c-4 -8 -3 -16 1 -19 4 -3 9 4 9 15 2 23 -3 25 -10 4z"/>
<path d="M5930 8896 c0 -2 7 -7 16 -10 8 -3 12 -2 9 4 -6 10 -25 14 -25 6z"/>
<path d="M8299 8869 c-3 -19 -2 -46 2 -60 l7 -24 2 25 2 25 9 -25 9 -25 -5 25
c-2 14 -8 41 -13 60 l-9 35 -4 -36z"/>
<path d="M7650 8866 c0 -9 5 -16 10 -16 6 0 10 4 10 9 0 6 -4 13 -10 16 -5 3
-10 -1 -10 -9z"/>
<path d="M7650 8837 c0 -2 7 -21 15 -41 8 -20 13 -36 9 -36 -3 0 2 -7 11 -16
13 -14 14 -19 3 -26 -10 -8 -10 -9 2 -5 8 2 13 11 12 18 -2 8 -6 25 -9 39 -2
13 -7 27 -11 30 -4 3 -7 11 -7 19 0 8 -6 16 -12 19 -7 2 -13 2 -13 -1z"/>
<path d="M6146 8805 c4 -8 11 -15 16 -15 6 0 5 6 -2 15 -7 8 -14 15 -16 15 -2
0 -1 -7 2 -15z"/>
<path d="M6350 8776 c0 -2 7 -7 16 -10 8 -3 12 -2 9 4 -6 10 -25 14 -25 6z"/>
<path d="M8320 8727 c0 -4 6 -23 14 -42 8 -18 11 -37 8 -41 -4 -4 -1 -4 7 1
10 6 12 2 7 -13 -4 -11 -2 -23 4 -27 6 -3 8 -10 5 -15 -3 -5 -1 -18 5 -29 8
-16 6 -24 -9 -38 -19 -18 -19 -18 10 -20 16 -1 29 2 29 6 0 5 9 7 20 4 12 -3
20 0 20 6 0 7 5 9 12 5 6 -4 8 -3 5 2 -3 6 -2 16 4 24 7 13 9 12 9 -2 0 -10 7
-18 15 -18 8 0 15 7 15 15 0 8 -7 15 -16 15 -11 0 -13 6 -9 20 3 10 0 32 -8
47 -7 15 -12 36 -10 45 3 14 0 16 -13 11 -11 -4 -13 -8 -6 -11 7 -2 9 -8 6
-13 -3 -6 -1 -15 4 -22 8 -10 10 -50 3 -89 -1 -4 -55 -28 -65 -28 -2 0 -4 20
-9 81 -2 26 -8 53 -13 60 -5 8 -9 19 -10 24 0 6 -2 19 -3 30 -2 13 -4 15 -8 6
-5 -11 -7 -11 -14 0 -5 8 -9 10 -9 6z"/>
<path d="M5931 8697 c2 -1 13 -9 24 -17 19 -14 19 -14 6 3 -7 9 -18 17 -24 17
-6 0 -8 -1 -6 -3z"/>
<path d="M7690 8694 c0 -21 44 -124 53 -124 8 0 7 4 0 11 -6 6 -9 18 -6 25 3
8 0 14 -7 14 -7 0 -10 7 -7 15 4 8 2 17 -3 20 -5 3 -7 14 -5 25 2 13 -2 20
-11 20 -8 0 -14 -3 -14 -6z"/>
<path d="M6041 8677 c-8 -10 -7 -14 2 -14 8 0 14 6 14 14 0 7 -1 13 -2 13 -2
0 -8 -6 -14 -13z"/>
<path d="M7620 8676 c0 -2 6 -22 14 -44 8 -22 11 -44 8 -48 -4 -4 -2 -4 5 0 9
5 8 17 -4 51 -12 38 -23 56 -23 41z"/>
<path d="M5981 8643 c-1 -17 16 -25 25 -12 4 7 3 9 -4 5 -5 -3 -13 0 -15 6 -4
9 -6 10 -6 1z"/>
<path d="M6164 8612 c3 -5 0 -13 -6 -15 -9 -4 -10 -6 -1 -6 17 -1 25 16 12 25
-7 4 -9 3 -5 -4z"/>
<path d="M6091 8551 c-25 -21 -31 -30 -21 -36 8 -5 11 -4 6 3 -7 11 26 35 38
27 3 -3 4 -2 1 2 -3 3 0 12 6 20 18 20 7 15 -30 -16z"/>
<path d="M7656 8571 c-4 -7 -5 -15 -2 -18 9 -9 19 4 14 18 -4 11 -6 11 -12 0z"/>
<path d="M8516 8554 c-5 -14 -4 -15 9 -4 12 10 15 10 15 -1 0 -9 3 -10 8 -3 4
6 14 14 22 17 8 3 1 6 -16 6 -21 1 -34 -5 -38 -15z"/>
<path d="M8606 8555 c4 -8 8 -15 10 -15 2 0 4 7 4 15 0 8 -4 15 -10 15 -5 0
-7 -7 -4 -15z"/>
<path d="M7735 8551 c-4 -7 -3 -16 3 -20 5 -3 12 -15 15 -26 l5 -20 0 20 c1
33 -13 61 -23 46z"/>
<path d="M8654 8536 c11 -9 16 -16 11 -16 -15 0 13 -24 31 -26 13 -2 13 0 -3
18 -10 11 -27 24 -38 29 -20 10 -20 10 -1 -5z"/>
<path d="M8541 8514 c0 -11 3 -14 6 -6 3 7 2 16 -1 19 -3 4 -6 -2 -5 -13z"/>
<path d="M8605 8520 c-3 -5 -1 -10 4 -10 6 0 11 5 11 10 0 6 -2 10 -4 10 -3 0
-8 -4 -11 -10z"/>
<path d="M8310 8499 c0 -5 5 -7 10 -4 6 3 10 8 10 11 0 2 -4 4 -10 4 -5 0 -10
-5 -10 -11z"/>
<path d="M8470 8480 c0 -5 5 -10 11 -10 5 0 7 5 4 10 -3 6 -8 10 -11 10 -2 0
-4 -4 -4 -10z"/>
<path d="M7751 8475 c1 -19 18 -51 18 -35 0 8 -4 22 -9 30 -5 8 -9 11 -9 5z"/>
<path d="M8215 8470 c-13 -6 -15 -9 -5 -9 8 0 22 4 30 9 18 12 2 12 -25 0z"/>
<path d="M7687 8450 c3 -11 9 -20 14 -20 11 0 11 3 3 24 -9 23 -23 20 -17 -4z"/>
<path d="M8640 8450 c-6 -11 -7 -20 -2 -20 6 0 12 9 15 20 3 11 3 20 1 20 -2
0 -8 -9 -14 -20z"/>
<path d="M5576 8445 c10 -8 24 -14 29 -14 6 0 1 6 -9 14 -11 8 -24 15 -30 15
-5 0 -1 -7 10 -15z"/>
<path d="M8717 8454 c-7 -8 15 -44 27 -44 4 0 2 7 -5 17 -8 9 -12 18 -11 20 6
8 -4 13 -11 7z"/>
<path d="M8102 8426 c-30 -11 -49 -23 -45 -29 4 -6 0 -8 -10 -4 -9 3 -19 2
-22 -3 -4 -6 -17 -10 -31 -10 -13 0 -24 -4 -24 -9 0 -15 18 -23 25 -11 4 6 11
8 16 5 5 -4 9 -1 9 4 0 22 30 10 31 -11 0 -14 2 -17 6 -8 2 8 7 22 10 30 4 8
5 19 4 24 -1 5 5 6 14 3 8 -4 15 -2 15 3 0 6 4 10 10 10 5 0 7 -7 4 -15 -4 -8
-3 -15 0 -15 4 0 10 10 14 21 8 20 9 20 25 4 10 -9 14 -21 11 -27 -4 -7 -2 -8
5 -4 6 4 9 16 6 27 -4 13 -2 19 9 19 8 0 17 3 19 8 9 13 -48 7 -101 -12z"/>
<path d="M5888 8423 c7 -3 16 -2 19 1 4 3 -2 6 -13 5 -11 0 -14 -3 -6 -6z"/>
<path d="M7781 8379 c13 -56 23 -66 15 -14 -4 22 -11 44 -16 49 -4 4 -4 -11 1
-35z"/>
<path d="M8677 8394 c-10 -14 -16 -30 -14 -37 3 -7 6 -4 6 6 1 9 5 17 10 17 8
0 24 30 19 35 -2 2 -11 -8 -21 -21z"/>
<path d="M7710 8388 c0 -9 5 -20 10 -23 6 -4 8 -10 5 -14 -2 -5 2 -17 10 -27
13 -18 14 -18 8 6 -10 37 -33 79 -33 58z"/>
<path d="M8532 8380 c7 -11 18 -20 25 -20 19 0 16 6 -12 24 -25 17 -25 16 -13
-4z"/>
<path d="M8105 8369 c-4 -6 -5 -12 -2 -15 2 -3 7 2 10 11 7 17 1 20 -8 4z"/>
<path d="M8755 8370 c-3 -5 -1 -10 4 -10 6 0 11 5 11 10 0 6 -2 10 -4 10 -3 0
-8 -4 -11 -10z"/>
<path d="M7946 8355 c-3 -8 -1 -15 4 -15 13 0 22 18 11 24 -5 3 -11 -1 -15 -9z"/>
<path d="M8707 8333 c-16 -18 -25 -33 -20 -33 10 0 57 60 51 64 -1 2 -16 -12
-31 -31z"/>
<path d="M8580 8351 c0 -7 -5 -9 -12 -5 -8 4 -10 3 -5 -2 5 -5 14 -9 20 -9 5
0 12 -6 15 -14 3 -9 0 -11 -9 -6 -8 5 -11 4 -6 -1 5 -5 13 -10 18 -10 22 -3
23 -5 12 -12 -8 -5 -8 -12 3 -26 12 -18 13 -17 9 12 -3 31 -45 97 -45 73z"/>
<path d="M8760 8332 c0 -10 -5 -23 -12 -30 -9 -9 -9 -12 0 -12 7 0 12 5 12 12
0 6 6 3 14 -8 8 -10 18 -15 23 -11 4 5 0 13 -9 18 -10 5 -15 18 -13 29 2 11 0
20 -6 20 -5 0 -9 -8 -9 -18z"/>
<path d="M7880 8330 c0 -6 -4 -8 -10 -5 -5 3 -22 0 -37 -8 l-27 -14 27 0 c15
0 27 3 27 8 0 5 6 6 14 3 17 -6 31 12 16 21 -5 3 -10 1 -10 -5z"/>
<path d="M7966 8323 c-6 -14 -5 -15 5 -6 7 7 10 15 7 18 -3 3 -9 -2 -12 -12z"/>
<path d="M8146 8331 c-17 -6 -17 -8 -4 -14 10 -3 19 0 22 9 3 8 4 14 3 13 -1
0 -11 -4 -21 -8z"/>
<path d="M8085 8310 c-3 -5 -13 -6 -22 -3 -12 5 -14 3 -8 -6 5 -10 2 -11 -14
-6 -11 3 -21 2 -21 -3 0 -5 -7 -9 -16 -8 -9 0 -19 -5 -21 -11 -3 -7 0 -13 7
-13 6 0 8 5 5 11 -4 6 -1 9 6 8 28 -5 98 13 103 27 6 16 -9 19 -19 4z"/>
<path d="M7773 8293 c-7 -2 -13 -9 -13 -14 0 -6 8 -5 20 1 16 9 22 8 26 -5 3
-8 10 -12 16 -9 5 3 1 12 -9 20 -20 15 -22 15 -40 7z"/>
<path d="M7725 8270 c-4 -11 -10 -18 -14 -16 -4 3 -13 1 -21 -5 -12 -7 -11 -9
5 -9 18 0 55 31 55 45 0 14 -20 2 -25 -15z"/>
<path d="M7890 8250 c-24 -8 -23 -8 8 -9 20 -1 31 3 27 9 -3 6 -7 10 -8 9 -1
-1 -13 -5 -27 -9z"/>
<path d="M8023 8220 c-6 -16 -8 -30 -3 -30 5 0 16 -3 26 -7 11 -4 15 -3 11 4
-8 12 20 26 34 17 13 -8 50 6 44 17 -4 5 -11 9 -16 9 -6 0 -8 -4 -4 -10 3 -5
-7 -9 -22 -8 -15 1 -35 -2 -44 -6 -13 -6 -16 -2 -12 18 7 35 0 33 -14 -4z"/>
<path d="M8150 8240 c-12 -8 -12 -10 3 -16 10 -3 21 -4 24 0 4 3 0 6 -8 6 -11
0 -11 2 1 10 8 5 11 10 5 10 -5 0 -17 -4 -25 -10z"/>
<path d="M7625 8209 c-20 -18 -33 -34 -30 -37 3 -3 -4 -11 -14 -19 -12 -8 -18
-21 -16 -34 5 -25 15 -38 15 -20 0 7 5 9 13 5 8 -6 8 -3 -2 9 -11 14 -9 20 16
45 16 16 27 36 24 43 -3 11 0 11 14 -1 17 -13 18 -13 13 1 -4 9 -1 22 5 28 24
24 -5 9 -38 -20z"/>
<path d="M7827 8219 c7 -7 15 -10 18 -7 3 3 -2 9 -12 12 -14 6 -15 5 -6 -5z"/>
<path d="M7795 8209 c-9 -14 -2 -20 14 -10 8 6 9 11 3 15 -6 3 -14 1 -17 -5z"/>
<path d="M8497 8197 c-3 -8 1 -14 8 -14 7 0 11 6 8 14 -3 7 -6 13 -8 13 -2 0
-5 -6 -8 -13z"/>
<path d="M8807 8203 c-4 -3 1 -15 10 -26 16 -19 16 -20 1 -14 -10 3 -22 -1
-30 -11 -12 -15 -11 -16 4 -4 14 11 18 10 31 -8 21 -30 31 -8 17 35 -11 34
-20 42 -33 28z"/>
<path d="M7765 8190 c3 -5 8 -10 11 -10 2 0 4 5 4 10 0 6 -5 10 -11 10 -5 0
-7 -4 -4 -10z"/>
<path d="M7988 8182 c-4 -15 -1 -18 14 -14 11 2 16 8 11 11 -4 3 -11 10 -14
14 -4 4 -9 -1 -11 -11z"/>
<path d="M7902 8155 c-13 -15 -17 -25 -9 -25 6 0 17 11 24 25 14 31 12 31 -15
0z"/>
<path d="M7870 8155 c-11 -13 -10 -14 4 -9 9 3 16 10 16 15 0 13 -6 11 -20 -6z"/>
<path d="M8506 8158 c3 -4 12 -8 20 -8 8 0 14 4 14 8 0 4 -9 8 -19 8 -11 0
-17 -4 -15 -8z"/>
<path d="M7807 8136 c-43 -19 -13 -36 33 -20 31 11 32 13 10 14 -20 0 -22 2
-10 10 21 13 1 11 -33 -4z"/>
<path d="M8318 8123 c-10 -2 -18 -8 -18 -13 0 -4 -7 -7 -16 -6 -9 0 -18 -7
-19 -16 -4 -22 8 -23 25 -3 6 8 15 14 18 13 13 -2 42 14 42 23 0 9 -4 10 -32
2z"/>
<path d="M8360 8115 c0 -9 6 -12 15 -9 8 4 12 10 9 15 -8 14 -24 10 -24 -6z"/>
<path d="M7744 8106 c-3 -8 -14 -12 -26 -8 -17 4 -20 2 -15 -11 7 -19 -4 -22
-19 -7 -7 7 -17 4 -30 -7 -10 -10 -32 -25 -47 -33 -25 -12 -29 -12 -37 0 -7
10 -10 11 -10 3 0 -7 1 -15 3 -18 1 -2 -7 -10 -17 -18 -18 -13 -18 -14 5 -11
13 1 28 3 32 3 5 1 5 6 2 11 -3 6 0 11 7 11 53 5 78 18 71 37 -6 14 -4 15 8 5
13 -10 19 -10 35 2 10 8 27 15 38 15 13 0 16 5 12 16 -5 14 -4 15 9 4 8 -7 15
-8 15 -2 0 16 -30 23 -36 8z"/>
<path d="M7543 8104 c4 -7 0 -15 -9 -18 -9 -4 -14 -9 -11 -13 4 -3 -1 -11 -10
-18 -13 -10 -14 -13 -2 -20 8 -5 11 -5 7 -1 -4 5 5 19 19 32 22 20 24 27 13
37 -8 8 -11 8 -7 1z"/>
<path d="M8828 8103 c6 -2 12 -18 12 -34 0 -19 5 -29 15 -29 14 0 14 -4 0 -37
-10 -25 -10 -33 -2 -23 18 23 41 25 33 3 -6 -14 -5 -15 5 -6 10 10 9 16 -4 31
-9 10 -14 21 -11 25 4 3 3 14 0 24 -6 15 -8 15 -16 3 -8 -13 -10 -12 -10 3 0
9 5 17 12 17 6 0 3 7 -8 15 -10 8 -23 14 -29 14 -5 0 -4 -3 3 -6z"/>
<path d="M8707 8093 c-11 -10 -8 -23 4 -20 6 1 14 -4 17 -12 3 -9 0 -11 -8 -6
-7 4 -4 -4 5 -19 26 -39 38 -32 20 12 -18 43 -29 55 -38 45z"/>
<path d="M8370 8086 c0 -2 7 -6 15 -10 8 -3 15 -1 15 4 0 6 -7 10 -15 10 -8 0
-15 -2 -15 -4z"/>
<path d="M8210 8059 c0 -6 -7 -8 -15 -5 -9 3 -18 -1 -21 -9 -4 -8 -10 -12 -15
-9 -5 3 -9 0 -9 -5 0 -14 1 -14 50 8 29 13 37 20 26 24 -9 4 -16 2 -16 -4z"/>
<path d="M8381 8050 c0 -8 4 -24 8 -34 7 -19 8 -18 14 4 3 13 4 26 2 29 -3 2
-5 -2 -6 -10 0 -8 -4 -6 -9 6 -5 13 -9 14 -9 5z"/>
<path d="M8815 8031 c-3 -5 -1 -12 5 -16 5 -3 10 1 10 9 0 18 -6 21 -15 7z"/>
<path d="M7481 8004 c0 -11 3 -14 6 -6 3 7 2 16 -1 19 -3 4 -6 -2 -5 -13z"/>
<path d="M8094 8009 c-9 -16 2 -22 21 -11 15 8 16 10 1 15 -8 3 -18 2 -22 -4z"/>
<path d="M8310 8009 c0 -6 -7 -8 -16 -5 -9 3 -12 2 -8 -5 4 -7 -2 -9 -14 -7
-12 2 -22 -1 -24 -6 -2 -5 10 -10 26 -12 15 -1 26 0 23 3 -4 3 4 14 16 24 12
10 16 18 10 19 -7 0 -13 -5 -13 -11z"/>
<path d="M8600 7989 c-11 -8 -12 -12 -2 -16 6 -2 9 -10 5 -16 -5 -9 -3 -9 8 0
12 9 14 5 17 -24 1 -19 5 -40 9 -46 3 -6 7 -23 9 -40 1 -16 7 -34 14 -40 8 -9
9 -6 1 15 -9 23 -8 26 6 21 13 -5 14 -3 2 18 -7 13 -12 31 -11 39 2 13 1 13
-7 1 -6 -10 -9 -3 -9 25 0 21 5 46 11 54 10 13 10 13 -5 2 -14 -11 -18 -11
-25 2 -6 11 -12 12 -23 5z"/>
<path d="M8751 7991 c-9 -6 -10 -11 -2 -15 6 -4 11 -17 11 -30 0 -12 6 -31 14
-41 8 -11 11 -26 8 -34 -4 -10 -1 -12 7 -6 10 5 12 2 7 -11 -7 -23 8 -49 23
-40 7 5 8 1 4 -10 -4 -12 -3 -15 6 -10 14 9 6 40 -20 77 -10 14 -16 28 -14 31
3 2 -3 25 -13 51 -13 33 -21 44 -31 38z m33 -67 c3 -8 2 -12 -4 -9 -6 3 -10
10 -10 16 0 14 7 11 14 -7z"/>
<path d="M7481 7953 c-26 -21 -33 -23 -28 -10 4 12 3 16 -4 12 -6 -4 -8 -13
-5 -21 3 -8 1 -14 -5 -14 -6 0 -7 -4 -4 -10 3 -5 1 -10 -4 -10 -6 0 -10 -3 -9
-7 1 -5 -4 -19 -11 -33 l-13 -25 25 25 c13 14 25 27 25 30 0 21 3 32 8 28 3
-4 18 7 33 23 15 16 31 26 34 22 4 -3 7 -1 7 5 0 18 -12 14 -49 -15z"/>
<path d="M7997 7969 c7 -7 15 -10 18 -7 3 3 -2 9 -12 12 -14 6 -15 5 -6 -5z"/>
<path d="M7920 7961 c0 -7 -10 -10 -25 -7 -14 3 -25 0 -25 -5 0 -13 47 -11 55
2 4 6 4 13 1 16 -3 4 -6 1 -6 -6z"/>
<path d="M7946 7962 c-2 -4 6 -8 19 -8 13 0 21 4 19 8 -3 4 -11 8 -19 8 -8 0
-16 -4 -19 -8z"/>
<path d="M8144 7957 c-3 -9 -4 -22 -2 -28 5 -15 38 -21 38 -8 0 6 6 7 13 3 7
-4 9 -3 4 2 -5 5 -14 9 -20 9 -7 0 -12 5 -12 12 0 20 -14 27 -21 10z"/>
<path d="M8899 7968 c-6 -14 -5 -68 1 -58 11 17 22 -3 14 -27 -5 -17 -5 -17 6
-1 8 14 7 23 -5 42 -9 14 -14 30 -10 36 3 5 4 10 1 10 -3 0 -6 -1 -7 -2z"/>
<path d="M8675 7940 c-10 -11 -14 -20 -9 -20 5 0 15 9 22 20 7 11 11 20 9 20
-2 0 -12 -9 -22 -20z"/>
<path d="M8217 7929 c7 -7 15 -10 18 -7 3 3 -2 9 -12 12 -14 6 -15 5 -6 -5z"/>
<path d="M7890 7921 c10 -7 11 -11 3 -11 -7 0 -10 -6 -7 -13 5 -15 34 -19 34
-5 0 4 -4 8 -10 8 -5 0 -9 5 -7 11 1 6 -5 14 -13 16 -13 4 -13 3 0 -6z"/>
<path d="M8063 7900 c1 -10 5 -16 11 -13 5 4 7 -1 3 -10 -3 -9 -2 -19 2 -22
19 -11 19 27 1 45 -18 18 -19 18 -17 0z"/>
<path d="M8201 7889 c-7 -12 -10 -24 -7 -27 3 -3 6 0 6 7 0 7 4 10 9 6 13 -7
21 8 12 23 -4 8 -11 5 -20 -9z"/>
<path d="M8930 7864 c0 -8 -5 -12 -11 -8 -7 4 -7 -1 1 -16 14 -26 31 -10 23
21 -6 23 -13 25 -13 3z"/>
<path d="M7614 7858 c-3 -5 -2 -17 1 -29 4 -11 2 -25 -3 -32 -6 -7 -20 -36
-31 -65 -18 -45 -19 -52 -5 -52 11 0 13 6 9 20 -4 13 0 23 14 32 16 10 18 15
8 27 -8 10 -8 13 -1 8 13 -8 29 56 19 73 -3 5 0 7 8 4 8 -3 17 1 20 8 5 15
-31 20 -39 6z"/>
<path d="M7917 7833 c3 -21 10 -40 15 -41 4 -2 6 -8 2 -13 -3 -5 0 -9 7 -9 7
0 9 8 5 23 -4 12 -9 34 -12 50 -10 41 -24 32 -17 -10z"/>
<path d="M8365 7861 c3 -5 -3 -12 -12 -14 -14 -4 -14 -5 -2 -6 8 0 24 6 35 14
18 14 18 14 -4 15 -13 0 -21 -4 -17 -9z"/>
<path d="M8027 7853 c-4 -3 -7 -11 -7 -17 0 -6 5 -5 12 2 6 6 9 14 7 17 -3 3
-9 2 -12 -2z"/>
<path d="M8100 7845 c-14 -16 -10 -18 14 -9 9 3 16 10 16 15 0 14 -16 11 -30
-6z"/>
<path d="M7665 7839 c-8 -13 16 -34 70 -59 22 -11 34 -20 27 -20 -7 0 -11 -4
-7 -10 3 -5 12 -7 19 -4 8 3 17 1 21 -5 3 -6 13 -11 21 -11 8 0 12 5 9 10 -4
6 -10 8 -15 5 -5 -3 -14 4 -20 15 -6 11 -17 20 -24 20 -7 0 -23 11 -36 25 -13
14 -31 24 -39 23 -9 -2 -15 3 -13 10 3 15 -4 16 -13 1z m56 -36 c13 -15 12
-15 -8 -4 -24 12 -29 21 -14 21 5 0 15 -7 22 -17z"/>
<path d="M8256 7838 c-21 -8 -25 -13 -15 -19 20 -13 37 -11 19 2 -11 8 -8 9
15 5 23 -5 27 -4 15 5 -12 8 -8 9 15 5 22 -5 26 -4 15 4 -18 12 -26 12 -64 -2z"/>
<path d="M7412 7828 c-15 -15 -16 -48 -1 -48 6 0 9 6 6 13 -2 6 0 20 5 30 10
20 7 22 -10 5z"/>
<path d="M8000 7831 c0 -10 19 -25 25 -20 1 2 -3 10 -11 17 -8 7 -14 8 -14 3z"/>
<path d="M8951 7806 c-1 -15 -4 -16 -16 -6 -18 15 -20 3 -2 -13 15 -14 37 -20
36 -9 0 4 -4 16 -9 27 -8 19 -9 19 -9 1z"/>
<path d="M8686 7795 c-9 -26 -7 -32 5 -12 6 10 9 21 6 23 -2 3 -7 -2 -11 -11z"/>
<path d="M7664 7778 c3 -21 17 -39 26 -33 5 3 22 -9 39 -26 17 -16 35 -27 41
-24 15 9 1 27 -16 21 -8 -3 -14 1 -14 8 0 15 -25 29 -50 30 -8 1 -15 6 -15 13
0 6 -3 14 -7 18 -3 4 -6 1 -4 -7z"/>
<path d="M8140 7779 c0 -5 -4 -8 -8 -5 -5 3 -9 -1 -9 -8 0 -9 6 -10 23 -2 12
6 20 14 18 18 -7 12 -24 10 -24 -3z"/>
<path d="M8827 7767 c-3 -8 -1 -20 4 -28 5 -8 9 -9 9 -4 1 6 8 -3 16 -19 12
-22 13 -30 4 -36 -9 -6 -8 -12 6 -26 11 -11 20 -32 20 -47 1 -16 10 -37 19
-47 9 -10 15 -25 13 -32 -5 -13 19 -44 28 -36 2 3 -1 18 -7 34 -7 16 -13 36
-15 44 -2 8 -10 20 -18 26 -16 12 -23 29 -7 20 4 -3 6 6 3 19 -2 14 -11 25
-18 25 -8 0 -14 5 -14 10 0 6 4 10 9 10 5 0 0 17 -10 37 -10 21 -19 43 -19 50
0 17 -16 17 -23 0z"/>
<path d="M7940 7751 c0 -6 5 -13 10 -16 6 -4 8 -11 5 -16 -4 -5 -1 -9 4 -9 12
0 14 11 5 34 -7 17 -24 22 -24 7z"/>
<path d="M8065 7744 c-11 -8 -19 -20 -17 -25 1 -6 -6 -8 -17 -4 -11 3 -22 1
-26 -4 -4 -7 1 -8 11 -4 12 5 15 3 9 -6 -6 -10 -3 -11 14 -1 12 6 24 17 27 25
3 8 12 11 19 9 7 -3 16 -1 20 5 4 7 0 8 -11 4 -12 -4 -15 -3 -10 5 9 16 5 15
-19 -4z"/>
<path d="M8678 7751 c7 -4 12 -12 11 -17 -1 -5 -1 -18 0 -28 2 -28 14 -11 16
22 1 22 -3 28 -19 30 -14 1 -17 -1 -8 -7z"/>
<path d="M7634 7739 c1 -7 10 -13 19 -15 9 -1 15 2 11 7 -3 5 -9 7 -14 4 -4
-3 -11 0 -13 5 -3 6 -4 5 -3 -1z"/>
<path d="M8926 7733 c-6 -14 -5 -15 5 -6 7 7 10 15 7 18 -3 3 -9 -2 -12 -12z"/>
<path d="M8959 7737 c6 -8 7 -18 3 -22 -4 -5 -1 -5 6 -1 18 11 15 -10 -5 -30
-16 -16 -16 -17 -1 -12 9 4 19 2 21 -5 2 -7 8 -8 13 -4 5 4 3 11 -3 15 -7 5
-9 13 -4 21 9 14 -15 51 -32 51 -5 0 -4 -6 2 -13z"/>
<path d="M7411 7723 c0 -10 4 -27 8 -37 7 -18 8 -18 14 -3 3 9 2 17 -4 17 -6
0 -8 9 -4 20 4 11 2 20 -4 20 -6 0 -11 -8 -10 -17z"/>
<path d="M7830 7720 c-13 -8 -12 -10 3 -10 9 0 17 -5 17 -12 0 -6 3 -9 6 -5 3
3 2 12 -3 21 -6 10 -13 12 -23 6z"/>
<path d="M7596 7697 c3 -10 9 -15 12 -12 3 3 0 11 -7 18 -10 9 -11 8 -5 -6z"/>
<path d="M7691 7691 c27 -22 32 -21 23 3 -3 9 -15 16 -26 16 -19 0 -19 -1 3
-19z"/>
<path d="M8707 7688 c-7 -27 -1 -38 21 -37 15 1 15 2 0 6 -18 5 -25 23 -9 23
5 0 11 7 15 15 3 9 0 15 -8 15 -8 0 -16 -10 -19 -22z"/>
<path d="M7788 7683 c6 -2 10 -8 7 -13 -3 -4 2 -10 10 -14 9 -3 15 0 15 8 0
13 -22 27 -38 25 -4 0 -1 -3 6 -6z"/>
<path d="M7988 7683 c7 -3 16 -2 19 1 4 3 -2 6 -13 5 -11 0 -14 -3 -6 -6z"/>
<path d="M7626 7668 c3 -5 13 -7 22 -6 10 2 16 -3 14 -10 -1 -8 2 -11 8 -7 5
3 10 2 10 -3 0 -6 10 -12 23 -16 13 -3 39 -22 59 -41 22 -22 39 -32 43 -26 3
6 -1 11 -10 11 -9 0 -14 4 -10 9 3 5 -3 12 -12 15 -10 3 -30 16 -44 30 -14 13
-36 29 -50 37 -28 15 -60 20 -53 7z"/>
<path d="M7577 7653 c4 -10 2 -14 -4 -10 -6 4 -13 0 -16 -8 -5 -12 -2 -12 19
-3 20 10 27 9 35 -3 5 -8 9 -10 9 -5 0 5 7 3 15 -4 9 -7 18 -11 20 -8 3 3 -11
13 -30 24 -19 10 -35 22 -35 26 0 5 -4 8 -10 8 -5 0 -6 -7 -3 -17z"/>
<path d="M7761 7644 c6 -7 16 -11 21 -8 11 7 3 17 -18 20 -12 2 -13 -1 -3 -12z"/>
<path d="M7830 7653 c0 -7 8 -16 18 -22 12 -7 14 -13 6 -20 -7 -8 -17 -5 -32
9 -12 12 -22 16 -22 11 0 -5 12 -19 26 -30 29 -23 27 -65 -4 -54 -14 6 -15 5
-2 -9 8 -9 18 -14 22 -12 3 2 9 -2 12 -8 3 -7 3 -3 0 10 -3 12 -1 22 4 22 5 0
7 11 4 25 -2 14 0 31 6 38 7 8 6 16 -4 25 -8 7 -14 9 -14 5 0 -4 -5 -1 -10 7
-6 9 -10 10 -10 3z"/>
<path d="M7875 7650 c-3 -5 -1 -10 4 -10 6 0 11 5 11 10 0 6 -2 10 -4 10 -3 0
-8 -4 -11 -10z"/>
<path d="M7446 7635 c-3 -9 5 -39 19 -68 13 -28 24 -44 25 -35 0 9 -4 19 -10
23 -5 3 -7 12 -3 20 3 8 0 15 -7 15 -7 0 -10 7 -6 16 4 9 2 13 -5 8 -8 -4 -9
1 -4 15 7 24 0 29 -9 6z"/>
<path d="M8730 7640 c-23 -7 -23 -8 -3 -9 12 -1 25 4 28 9 3 6 5 10 3 9 -2 -1
-14 -5 -28 -9z"/>
<path d="M8990 7635 c7 -8 10 -22 6 -30 -3 -9 0 -15 8 -15 8 0 13 -8 11 -17
-2 -10 -4 -22 -4 -26 -1 -5 -5 -5 -11 -2 -6 4 -7 -1 -3 -11 5 -14 8 -13 19 7
11 21 18 19 16 -3 -1 -3 5 -9 13 -12 17 -6 21 9 5 19 -6 4 -8 10 -5 15 3 4 -2
13 -10 20 -7 6 -11 18 -8 26 3 8 0 14 -6 14 -6 0 -8 7 -5 15 4 11 0 15 -16 15
-19 0 -20 -2 -10 -15z"/>
<path d="M8720 7612 c0 -5 6 -17 14 -27 8 -11 12 -25 9 -32 -3 -7 2 -16 11
-19 9 -3 16 -13 16 -21 0 -9 -5 -11 -12 -7 -10 6 -10 5 -1 -7 6 -8 13 -25 15
-38 2 -14 11 -25 21 -27 17 -2 17 -1 3 21 -9 14 -16 33 -16 44 0 28 -11 52
-21 45 -24 -14 -5 18 24 40 17 14 28 26 23 26 -5 0 -17 -7 -27 -16 -16 -14
-18 -14 -24 5 -6 20 -35 30 -35 13z"/>
<path d="M7543 7596 c3 -7 1 -18 -4 -23 -6 -6 -4 -14 6 -23 13 -11 14 -10 9 6
-7 18 -6 18 15 -1 l23 -20 -18 37 c-18 35 -42 55 -31 24z"/>
<path d="M7574 7601 c4 -6 14 -11 22 -11 8 0 17 -7 21 -16 5 -13 7 -13 14 -2
6 9 9 9 9 1 0 -7 10 -18 23 -24 22 -11 22 -11 2 8 -11 10 -24 20 -29 20 -5 1
-12 6 -15 11 -9 14 -55 27 -47 13z"/>
<path d="M7685 7580 c-3 -6 1 -7 9 -4 18 7 21 14 7 14 -6 0 -13 -4 -16 -10z"/>
<path d="M7710 7570 c-10 -6 -5 -13 20 -29 19 -11 37 -18 42 -15 4 3 8 0 8 -5
0 -6 5 -11 11 -11 8 0 7 5 -1 15 -7 9 -15 13 -17 11 -3 -3 -15 6 -27 19 -15
16 -27 21 -36 15z"/>
<path d="M8801 7547 c-13 -21 -12 -21 5 -5 10 10 16 20 13 22 -3 3 -11 -5 -18
-17z"/>
<path d="M1560 7546 c0 -2 7 -7 16 -10 8 -3 12 -2 9 4 -6 10 -25 14 -25 6z"/>
<path d="M7540 7523 c5 -12 15 -25 22 -29 7 -4 8 -3 4 4 -12 20 5 13 24 -8 17
-20 86 -70 96 -70 3 0 14 -9 26 -20 12 -11 27 -20 32 -20 6 1 1 9 -11 19 -12
10 -19 22 -15 26 4 5 2 5 -5 1 -6 -3 -18 3 -27 15 -8 12 -26 23 -40 24 -13 2
-38 18 -55 37 -18 19 -31 27 -31 19 0 -11 -4 -10 -16 5 -15 18 -15 18 -4 -3z
m131 -80 c13 -16 12 -17 -3 -4 -10 7 -18 15 -18 17 0 8 8 3 21 -13z"/>
<path d="M7615 7531 c-3 -5 -2 -12 3 -15 5 -3 9 1 9 9 0 17 -3 19 -12 6z"/>
<path d="M7698 7531 c8 -4 13 -11 13 -15 -1 -3 1 -6 4 -6 3 0 8 0 11 0 4 0 1
7 -6 15 -7 8 -18 15 -24 15 -7 0 -6 -4 2 -9z"/>
<path d="M7495 7509 c-4 -6 -5 -12 -2 -15 2 -3 7 2 10 11 7 17 1 20 -8 4z"/>
<path d="M9037 7505 c3 -9 -3 -22 -13 -31 -18 -14 -18 -14 4 -4 15 7 22 7 22
0 0 -5 9 -19 20 -30 12 -12 17 -26 13 -36 -5 -12 -3 -15 6 -9 10 5 11 2 7 -13
-9 -26 11 -65 27 -55 8 4 8 2 -1 -9 -9 -11 -10 -18 -2 -23 5 -3 10 -15 10 -26
0 -23 15 -25 24 -3 3 8 2 12 -4 9 -6 -4 -10 7 -10 24 0 17 -12 56 -27 88 -14
32 -27 65 -28 73 -1 8 -7 24 -14 35 -12 20 -12 20 -6 0 16 -46 15 -48 -5 -12
-21 37 -34 50 -23 22z m76 -145 c3 -11 1 -18 -4 -14 -5 3 -9 12 -9 20 0 20 7
17 13 -6z"/>
<path d="M7822 7498 c5 -15 28 -23 28 -10 0 5 -7 13 -16 16 -10 4 -14 1 -12
-6z"/>
<path d="M7735 7491 c3 -6 10 -9 15 -6 4 3 11 0 13 -5 3 -6 4 -5 3 2 -1 7 -11
15 -21 16 -11 3 -15 0 -10 -7z"/>
<path d="M7805 7477 c7 -27 -8 -39 -18 -14 -4 9 -6 9 -6 0 -1 -13 37 -43 53
-43 5 0 1 7 -10 16 -10 8 -14 13 -7 10 6 -4 14 -2 18 4 3 5 1 10 -5 10 -6 0
-9 4 -6 9 3 5 -1 15 -10 22 -13 11 -14 9 -9 -14z"/>
<path d="M7507 7476 c-9 -24 -9 -28 3 -21 6 3 10 1 10 -6 0 -7 2 -10 5 -7 3 3
2 15 -3 28 -8 20 -9 21 -15 6z"/>
<path d="M7680 7486 c0 -2 7 -7 16 -10 8 -3 12 -2 9 4 -6 10 -25 14 -25 6z"/>
<path d="M8815 7469 c-11 -16 -1 -19 13 -3 7 8 8 14 3 14 -5 0 -13 -5 -16 -11z"/>
<path d="M8930 7459 c0 -5 8 -9 18 -10 10 0 12 -3 5 -6 -7 -2 -13 -9 -13 -15
0 -6 6 -5 15 2 9 7 14 18 12 23 -4 13 -37 18 -37 6z"/>
<path d="M7736 7451 c-3 -5 1 -14 8 -20 12 -10 13 -8 9 8 -6 23 -9 25 -17 12z"/>
<path d="M7768 7423 c5 -21 7 -23 10 -9 2 10 0 22 -6 28 -6 6 -7 0 -4 -19z"/>
<path d="M7526 7422 c-3 -5 -2 -22 3 -37 6 -26 8 -27 15 -10 4 11 3 21 -3 23
-5 2 -7 10 -4 18 6 15 -2 20 -11 6z"/>
<path d="M8852 7414 c-12 -8 -27 -12 -34 -8 -7 5 -8 3 -3 -6 4 -7 2 -16 -6
-20 -11 -7 -10 -13 1 -37 7 -15 12 -35 11 -43 -2 -8 0 -12 3 -9 11 11 16 50 5
44 -24 -15 -6 38 22 65 35 33 35 38 1 14z"/>
<path d="M8965 7420 c-4 -7 -2 -17 4 -23 14 -14 14 -30 0 -21 -13 8 -3 -35 12
-50 5 -6 9 -20 9 -32 0 -12 9 -32 20 -45 l19 -24 -10 35 c-6 19 -12 51 -13 71
-2 20 -7 43 -12 50 -5 8 -9 20 -10 27 -3 20 -11 25 -19 12z m35 -95 c0 -5 -5
-3 -10 5 -5 8 -10 20 -10 25 0 6 5 3 10 -5 5 -8 10 -19 10 -25z"/>
<path d="M7793 7405 c0 -8 4 -12 9 -9 4 3 8 1 8 -5 0 -18 -21 -23 -38 -9 -15
11 -15 11 -5 -3 7 -9 11 -18 8 -20 -2 -3 6 -5 20 -4 13 0 27 4 31 8 5 4 0 5
-11 1 -17 -6 -17 -3 5 21 14 16 20 25 13 21 -6 -3 -14 -2 -18 4 -9 15 -22 12
-22 -5z"/>
<path d="M9055 7370 c-3 -5 -1 -10 4 -10 6 0 11 5 11 10 0 6 -2 10 -4 10 -3 0
-8 -4 -11 -10z"/>
<path d="M7546 7355 c-9 -26 -7 -32 5 -12 6 10 9 21 6 23 -2 3 -7 -2 -11 -11z"/>
<path d="M8864 7348 l-19 -23 23 19 c21 18 27 26 19 26 -2 0 -12 -10 -23 -22z"/>
<path d="M3500 7300 c-9 -6 -10 -10 -3 -10 6 0 15 5 18 10 8 12 4 12 -15 0z"/>
<path d="M7566 7293 c-6 -14 -5 -15 5 -6 7 7 10 15 7 18 -3 3 -9 -2 -12 -12z"/>
<path d="M8835 7258 c4 -12 13 -26 19 -30 6 -5 7 -8 1 -8 -5 0 -2 -5 8 -11 14
-8 16 -14 6 -25 -21 -26 -3 -25 19 1 16 19 18 25 7 25 -15 0 -38 34 -29 43 3
3 -4 11 -16 17 -20 11 -21 10 -15 -12z"/>
<path d="M7570 7264 c0 -17 17 -36 24 -26 3 5 -1 15 -9 22 -8 7 -15 9 -15 4z"/>
<path d="M9095 7249 c-4 -6 -5 -12 -2 -15 2 -3 7 2 10 11 7 17 1 20 -8 4z"/>
<path d="M9146 7215 c-9 -13 -16 -28 -16 -32 0 -4 5 -1 10 7 9 13 10 13 11 0
1 -8 1 -19 0 -23 -1 -5 3 -6 9 -2 18 11 11 -8 -12 -34 -13 -14 -16 -20 -7 -13
33 24 56 -42 24 -68 -10 -8 -13 -21 -9 -33 4 -12 2 -17 -4 -13 -11 7 -23 -17
-18 -36 1 -7 1 -10 -1 -5 -3 4 -10 4 -15 1 -6 -4 -8 -2 -5 3 4 6 -2 22 -13 34
-11 13 -19 18 -20 12 0 -7 4 -13 8 -13 5 0 9 -28 9 -62 0 -41 -3 -55 -9 -43
-7 20 -8 20 -7 0 2 -35 -1 -46 -10 -41 -13 9 -21 -19 -9 -35 8 -11 9 -10 4 4
-3 9 -1 17 3 17 16 0 56 73 43 78 -7 2 -12 8 -12 13 0 4 6 6 14 3 19 -7 47 23
39 43 -4 10 -2 14 4 10 7 -5 10 2 8 20 -1 15 4 33 12 42 12 11 14 27 8 65 -3
28 -6 62 -7 75 0 19 -2 21 -10 10 -7 -10 -8 -6 -4 14 8 33 3 34 -18 2z"/>
<path d="M2940 7210 c-9 -6 -10 -10 -3 -10 6 0 15 5 18 10 8 12 4 12 -15 0z"/>
<path d="M2970 7186 c7 -7 13 -7 20 0 6 6 3 10 -10 10 -13 0 -16 -4 -10 -10z"/>
<path d="M7613 7171 c0 -11 5 -18 9 -15 4 3 5 11 1 19 -7 21 -12 19 -10 -4z"/>
<path d="M9030 7170 c5 -10 6 -20 3 -24 -3 -3 -1 -6 6 -6 8 0 11 -6 7 -17 -4
-10 -4 -14 0 -10 4 4 14 1 22 -6 13 -10 14 -8 7 13 -4 14 -12 27 -16 28 -5 2
-9 12 -9 21 0 10 -7 18 -14 18 -11 0 -12 -5 -6 -17z"/>
<path d="M8890 7155 c0 -8 -5 -15 -11 -15 -8 0 -8 -4 -2 -12 6 -7 9 -23 8 -35
-1 -12 2 -20 7 -17 4 3 8 -3 8 -13 0 -15 2 -16 10 -3 6 9 5 17 -2 21 -6 4 -8
11 -4 17 3 6 2 13 -4 17 -5 3 -7 17 -4 31 3 13 3 24 0 24 -3 0 -6 -7 -6 -15z"/>
<path d="M8931 7158 c-1 -10 -5 -18 -11 -18 -5 0 -10 -5 -10 -12 0 -8 6 -7 16
4 9 9 14 22 11 30 -4 9 -6 7 -6 -4z"/>
<path d="M7627 7120 c3 -11 7 -20 9 -20 2 0 4 9 4 20 0 11 -4 20 -9 20 -5 0
-7 -9 -4 -20z"/>
<path d="M8955 7100 c-3 -5 -2 -10 4 -10 5 0 13 5 16 10 3 6 2 10 -4 10 -5 0
-13 -4 -16 -10z"/>
<path d="M9051 7090 c0 -8 6 -26 14 -40 8 -14 14 -19 15 -12 0 7 4 10 10 7 6
-3 7 1 4 9 -3 9 -10 16 -16 16 -5 0 -6 5 -2 12 4 6 3 8 -4 4 -5 -3 -13 0 -15
6 -4 9 -6 8 -6 -2z"/>
<path d="M8630 7071 c0 -7 -9 -9 -26 -5 -21 5 -25 4 -19 -6 6 -10 4 -12 -8 -7
-9 3 -21 -1 -29 -11 -9 -11 -10 -14 0 -8 6 4 12 4 12 1 0 -10 -28 -35 -39 -35
-13 0 -25 -44 -18 -62 3 -7 6 0 6 15 1 16 5 26 11 22 6 -3 10 -2 10 3 0 5 9
12 21 15 12 3 19 10 16 14 -17 28 49 51 79 28 19 -15 19 -15 0 -13 -10 2 -21
-4 -23 -12 -3 -10 -2 -11 4 -4 5 7 16 8 28 3 12 -4 14 -8 6 -8 -11 -1 -12 -4
-4 -12 8 -8 16 -8 30 0 10 6 12 11 5 11 -7 0 -17 11 -22 25 -5 14 -17 25 -27
26 -13 0 -12 3 6 10 13 5 26 7 29 4 3 -3 -1 -5 -9 -5 -8 -1 -1 -8 14 -16 15
-8 25 -19 22 -24 -3 -5 0 -12 6 -16 8 -4 9 -3 5 4 -4 7 -3 12 3 12 5 0 11 -4
13 -9 2 -4 12 -5 22 -1 17 6 16 9 -16 34 -39 29 -108 47 -108 27z m77 -17 c-3
-3 -12 -4 -19 -1 -8 3 -5 6 6 6 11 1 17 -2 13 -5z"/>
<path d="M8930 7065 c-7 -9 -11 -18 -8 -20 3 -3 11 1 18 10 7 9 11 18 8 20 -3
3 -11 -1 -18 -10z"/>
<path d="M3217 7059 c7 -7 15 -10 18 -7 3 3 -2 9 -12 12 -14 6 -15 5 -6 -5z"/>
<path d="M7660 7050 c6 -11 13 -20 16 -20 2 0 0 9 -6 20 -6 11 -13 20 -16 20
-2 0 0 -9 6 -20z"/>
<path d="M3237 7029 c7 -7 15 -10 18 -7 3 3 -2 9 -12 12 -14 6 -15 5 -6 -5z"/>
<path d="M8900 7037 c0 -1 8 -23 18 -48 l17 -45 23 28 c16 19 18 26 8 22 -9
-3 -16 -10 -16 -16 0 -5 -4 -6 -10 -3 -5 3 -10 17 -10 30 0 12 -7 25 -15 29
-8 3 -15 4 -15 3z"/>
<path d="M7677 7000 c3 -11 9 -22 13 -25 5 -3 6 4 3 15 -3 11 -9 22 -13 25 -5
3 -6 -4 -3 -15z"/>
<path d="M8773 7002 c-9 -6 -7 -13 8 -26 12 -10 18 -24 15 -32 -3 -9 -1 -24 5
-35 7 -14 7 -30 1 -49 -8 -22 -7 -30 4 -34 9 -3 12 -1 9 4 -3 6 -3 10 2 10 4
0 8 18 8 40 1 22 -3 40 -8 40 -5 0 -7 9 -4 21 4 13 -1 26 -13 37 -11 8 -17 19
-14 24 6 10 3 10 -13 0z"/>
<path d="M8575 6990 c-3 -5 -1 -10 4 -10 6 0 11 5 11 10 0 6 -2 10 -4 10 -3 0
-8 -4 -11 -10z"/>
<path d="M8602 6978 c5 -15 28 -18 29 -3 0 6 -7 12 -17 13 -10 3 -15 -1 -12
-10z"/>
<path d="M2475 6971 c-3 -5 -2 -12 3 -15 5 -3 9 1 9 9 0 17 -3 19 -12 6z"/>
<path d="M8720 6959 c0 -5 9 -9 20 -9 11 0 20 2 20 4 0 2 -9 6 -20 9 -11 3
-20 1 -20 -4z"/>
<path d="M7706 6940 c3 -14 11 -32 16 -40 6 -10 7 -7 2 10 -3 14 -11 32 -16
40 -6 10 -7 7 -2 -10z"/>
<path d="M8765 6941 c-3 -5 -1 -12 5 -16 6 -4 8 -11 4 -16 -3 -5 -10 -6 -16
-3 -7 5 -8 2 -3 -6 6 -10 4 -12 -8 -7 -18 7 -29 -6 -31 -37 -1 -11 -7 -20 -14
-18 -7 1 -12 -2 -12 -7 0 -6 9 -9 19 -8 11 0 18 4 15 8 -2 4 -1 10 3 12 8 5
34 -18 33 -28 0 -3 4 -13 9 -23 9 -16 11 -16 27 0 15 15 15 17 -7 28 -38 21
-78 77 -46 64 17 -6 40 20 42 47 2 20 -10 26 -20 10z m20 -132 c11 -16 1 -19
-13 -3 -7 8 -8 14 -3 14 5 0 13 -5 16 -11z"/>
<path d="M9000 6940 c-9 -6 -10 -10 -3 -10 6 0 15 5 18 10 8 12 4 12 -15 0z"/>
<path d="M8728 6933 c7 -3 16 -2 19 1 4 3 -2 6 -13 5 -11 0 -14 -3 -6 -6z"/>
<path d="M8550 6919 c0 -11 27 -12 34 -1 2 4 -4 9 -15 9 -10 1 -19 -2 -19 -8z"/>
<path d="M9040 6905 c-7 -9 -11 -17 -9 -20 3 -2 10 5 17 15 14 24 10 26 -8 5z"/>
<path d="M8548 6885 c17 -14 35 -25 41 -25 6 0 11 -5 11 -11 0 -5 -4 -8 -9 -5
-5 4 -7 -4 -3 -16 l5 -22 9 23 c10 27 3 41 -20 41 -13 0 -14 2 -4 8 9 6 5 12
-13 20 -42 19 -49 14 -17 -13z"/>
<path d="M8950 6891 c0 -11 5 -23 10 -26 6 -4 8 -10 5 -15 -3 -5 -1 -11 5 -15
5 -3 10 -30 10 -60 0 -54 -7 -68 -53 -100 -18 -12 -19 -17 -8 -27 8 -8 11 -8
8 -2 -4 7 1 18 10 25 15 12 16 12 10 -3 -3 -10 -3 -18 2 -18 5 0 11 9 14 21 3
12 9 19 14 17 4 -3 16 3 26 14 19 20 9 26 -11 6 -14 -14 -15 -2 -2 27 5 11 9
15 9 8 2 -20 36 -7 39 15 4 25 -1 27 -29 11 -19 -10 -19 -9 -9 10 7 15 7 21 0
21 -7 0 -7 7 1 22 10 18 9 20 -6 15 -11 -5 -15 -3 -13 5 3 7 -2 19 -10 27 -10
10 -11 16 -3 19 6 2 9 8 5 13 -9 16 -24 10 -24 -10z"/>
<path d="M8500 6891 c0 -6 4 -13 10 -16 6 -3 7 1 4 9 -7 18 -14 21 -14 7z"/>
<path d="M2436 6877 c3 -10 9 -15 12 -12 3 3 0 11 -7 18 -10 9 -11 8 -5 -6z"/>
<path d="M3510 6866 c7 -7 13 -7 20 0 6 6 3 10 -10 10 -13 0 -16 -4 -10 -10z"/>
<path d="M8524 6828 c2 -15 11 -39 21 -54 17 -26 18 -27 31 -9 16 22 17 35 4
55 -8 12 -10 12 -10 -5 0 -11 -5 -27 -11 -35 -9 -13 -10 -12 -5 3 4 12 2 16
-6 11 -7 -5 -9 -2 -5 8 3 9 -1 24 -8 35 -13 17 -13 16 -11 -9z"/>
<path d="M7740 6831 c0 -6 4 -13 10 -16 6 -3 7 1 4 9 -7 18 -14 21 -14 7z"/>
<path d="M9040 6808 c0 -9 5 -20 10 -23 13 -8 13 5 0 25 -8 13 -10 13 -10 -2z"/>
<path d="M8660 6796 c0 -8 5 -18 10 -21 6 -3 8 -18 5 -33 -4 -23 -4 -24 4 -7
5 11 10 14 10 8 1 -7 9 -13 19 -13 16 1 16 1 0 11 -13 7 -16 17 -11 39 5 26 2
30 -16 30 -12 0 -21 -6 -21 -14z m30 0 c0 -3 -4 -8 -10 -11 -5 -3 -10 -1 -10
4 0 6 5 11 10 11 6 0 10 -2 10 -4z"/>
<path d="M8753 6765 c0 -8 4 -12 9 -9 5 3 6 10 3 15 -9 13 -12 11 -12 -6z"/>
<path d="M8725 6761 c-3 -5 -1 -12 5 -16 5 -3 10 1 10 9 0 18 -6 21 -15 7z"/>
<path d="M7770 6743 c1 -12 39 -79 40 -70 0 12 -28 77 -34 77 -4 0 -6 -3 -6
-7z"/>
<path d="M8591 6734 c6 -8 15 -14 19 -14 4 0 10 6 13 14 4 9 -2 14 -19 14 -20
0 -22 -3 -13 -14z"/>
<path d="M833 6727 c0 -8 6 -14 14 -14 9 0 10 4 2 14 -6 7 -12 13 -14 13 -1 0
-2 -6 -2 -13z"/>
<path d="M995 6670 c-3 -6 1 -7 9 -4 18 7 21 14 7 14 -6 0 -13 -4 -16 -10z"/>
<path d="M816 6651 c-3 -5 1 -14 10 -21 12 -10 17 -11 27 -1 9 10 8 11 -6 5
-13 -5 -16 -2 -11 10 6 17 -11 23 -20 7z"/>
<path d="M7808 6655 c-7 -13 17 -71 25 -59 3 5 0 22 -7 39 -7 16 -15 25 -18
20z"/>
<path d="M8884 6647 c-3 -9 -10 -15 -14 -12 -4 3 -11 -2 -14 -10 -4 -12 -2
-13 12 -7 9 5 23 7 30 5 14 -5 15 6 2 27 -8 12 -10 12 -16 -3z"/>
<path d="M8787 6613 c-11 -3 -16 -10 -13 -20 5 -11 1 -13 -15 -8 -13 5 -19 3
-15 -3 3 -5 -1 -12 -9 -16 -8 -3 -15 -1 -15 4 0 5 -7 7 -16 3 -15 -5 -15 -7 0
-15 10 -5 24 -5 37 2 11 7 27 9 35 6 8 -3 14 1 14 9 0 8 5 15 11 15 5 0 7 5 3
11 -4 8 1 9 17 4 19 -5 21 -4 9 4 -8 6 -17 10 -20 10 -3 -1 -13 -3 -23 -6z"/>
<path d="M753 6585 c0 -8 4 -12 9 -9 5 3 6 10 3 15 -9 13 -12 11 -12 -6z"/>
<path d="M8893 6573 c3 -13 1 -26 -5 -29 -5 -3 -7 -13 -4 -21 5 -11 2 -13 -11
-9 -9 4 -20 1 -25 -6 -6 -10 -8 -10 -8 0 0 6 -5 12 -11 12 -8 0 -8 -4 0 -14
14 -16 65 -7 67 12 1 7 2 17 3 23 0 5 7 7 14 3 7 -5 6 0 -3 11 -8 10 -13 20
-12 22 2 3 0 8 -4 11 -4 4 -4 -3 -1 -15z"/>
<path d="M7830 6571 c0 -6 4 -11 9 -11 5 0 12 -8 14 -17 4 -15 5 -15 6 -2 0 9
-6 22 -14 29 -10 9 -15 9 -15 1z"/>
<path d="M1146 6552 c-3 -5 1 -9 9 -9 8 0 12 4 9 9 -3 4 -7 8 -9 8 -2 0 -6 -4
-9 -8z"/>
<path d="M8655 6552 c-10 -7 -18 -32 -10 -32 2 0 16 5 30 12 18 8 22 14 13 20
-16 10 -20 10 -33 0z"/>
<path d="M8795 6549 c-6 -8 -4 -10 5 -4 10 6 12 4 6 -11 -6 -15 -5 -17 5 -6 9
9 10 15 2 23 -8 8 -13 7 -18 -2z"/>
<path d="M923 6535 c0 -8 4 -12 9 -9 5 3 6 10 3 15 -9 13 -12 11 -12 -6z"/>
<path d="M685 6531 c-3 -5 -2 -12 3 -15 5 -3 9 1 9 9 0 17 -3 19 -12 6z"/>
<path d="M8587 6513 c-9 -14 9 -27 23 -18 6 3 10 12 10 18 0 8 -3 7 -9 -2 -7
-11 -9 -11 -13 0 -3 9 -6 10 -11 2z"/>
<path d="M960 6496 c0 -2 7 -7 16 -10 8 -3 12 -2 9 4 -6 10 -25 14 -25 6z"/>
<path d="M7870 6478 c0 -16 5 -28 12 -28 6 0 9 -3 5 -6 -11 -11 14 -63 29 -57
8 3 14 0 14 -6 0 -6 -5 -11 -10 -11 -7 0 -7 -7 1 -21 7 -15 14 -18 21 -11 12
12 41 4 33 -8 -8 -13 43 -21 82 -14 l36 7 -33 13 c-42 18 -48 18 -24 -2 18
-15 18 -15 -11 -9 -16 4 -32 10 -35 15 -3 5 -17 12 -33 15 -15 4 -24 11 -21
17 7 12 -16 39 -27 32 -5 -3 -9 4 -9 14 0 11 -7 35 -15 53 -14 34 -14 34 -15
7z"/>
<path d="M8540 6493 c-8 -3 -27 -14 -41 -24 -14 -10 -28 -16 -31 -14 -3 3 -5
-1 -5 -9 0 -15 17 -11 84 21 41 19 35 42 -7 26z m15 -13 c-3 -5 -12 -10 -18
-10 -7 0 -6 4 3 10 19 12 23 12 15 0z"/>
<path d="M1026 6462 c-3 -5 1 -9 9 -9 8 0 12 4 9 9 -3 4 -7 8 -9 8 -2 0 -6 -4
-9 -8z"/>
<path d="M616 6452 c-3 -4 4 -9 15 -9 23 -2 25 3 4 10 -8 4 -16 3 -19 -1z"/>
<path d="M8388 6431 c-31 -9 -59 -19 -63 -23 -4 -4 -14 -4 -23 -1 -13 4 -14 3
-4 -5 11 -7 10 -10 -3 -16 -23 -8 -27 -8 -21 3 4 5 -3 7 -14 4 -11 -3 -20 -10
-20 -15 0 -6 -7 -8 -15 -4 -13 5 -104 -8 -144 -20 -31 -10 0 -15 33 -6 23 7
38 7 42 1 3 -6 11 -6 17 -1 7 4 27 8 45 8 17 -1 32 2 32 5 0 4 15 10 33 14 17
4 35 9 40 10 4 1 15 3 25 4 15 2 15 4 -3 12 -15 7 -12 8 15 4 25 -4 31 -2 20
5 -12 8 -10 10 10 11 14 1 32 2 41 1 9 -1 16 5 16 13 0 8 -1 14 -1 14 -1 -1
-27 -9 -58 -18z"/>
<path d="M1345 6429 c-4 -6 -5 -12 -2 -15 2 -3 7 2 10 11 7 17 1 20 -8 4z"/>
<path d="M567 6382 c-10 -10 -17 -24 -17 -31 0 -7 -5 -9 -12 -5 -7 5 -8 3 -3
-5 9 -15 52 21 52 44 0 19 0 19 -20 -3z"/>
<path d="M476 6372 c-3 -5 1 -9 9 -9 8 0 12 4 9 9 -3 4 -7 8 -9 8 -2 0 -6 -4
-9 -8z"/>
<path d="M1315 6349 c-4 -6 -5 -12 -2 -15 2 -3 7 2 10 11 7 17 1 20 -8 4z"/>
<path d="M2283 6345 c0 -8 4 -12 9 -9 5 3 6 10 3 15 -9 13 -12 11 -12 -6z"/>
<path d="M1194 6332 c23 -26 23 -26 23 -7 0 8 -3 13 -5 10 -3 -3 -12 1 -21 7
-10 8 -9 4 3 -10z"/>
<path d="M2965 6331 c-3 -5 -2 -12 3 -15 5 -3 9 1 9 9 0 17 -3 19 -12 6z"/>
<path d="M8255 6328 c-4 -10 -4 -22 0 -27 3 -6 1 -20 -6 -32 -6 -12 -7 -19 -1
-15 16 10 31 62 22 77 -7 11 -10 10 -15 -3z"/>
<path d="M1409 6317 c6 -8 7 -18 3 -22 -4 -5 -1 -5 6 -1 10 6 10 11 1 22 -6 8
-14 14 -16 14 -3 0 0 -6 6 -13z"/>
<path d="M506 6307 c3 -10 9 -15 12 -12 3 3 0 11 -7 18 -10 9 -11 8 -5 -6z"/>
<path d="M1315 6310 c-3 -5 -1 -10 4 -10 6 0 11 5 11 10 0 6 -2 10 -4 10 -3 0
-8 -4 -11 -10z"/>
<path d="M401 6286 c-21 -22 -21 -24 -5 -22 11 2 19 7 19 12 0 5 4 15 8 22 13
20 2 14 -22 -12z"/>
<path d="M1244 6298 c-4 -7 -4 -10 1 -6 4 4 15 2 24 -5 14 -11 14 -10 2 6 -16
20 -18 21 -27 5z"/>
<path d="M8159 6287 c6 -8 7 -18 3 -22 -4 -5 -2 -5 5 -1 14 8 6 36 -9 36 -7 0
-6 -5 1 -13z"/>
<path d="M433 6205 c0 -8 4 -12 9 -9 5 3 6 10 3 15 -9 13 -12 11 -12 -6z"/>
<path d="M1397 6206 c-3 -8 -2 -18 3 -21 13 -8 20 9 11 24 -6 10 -10 9 -14 -3z"/>
<path d="M1293 6193 c0 -9 4 -10 14 -2 7 6 13 12 13 14 0 1 -6 2 -13 2 -8 0
-14 -6 -14 -14z"/>
<path d="M336 6077 c3 -10 9 -15 12 -12 3 3 0 11 -7 18 -10 9 -11 8 -5 -6z"/>
<path d="M2040 6026 c0 -2 8 -10 18 -17 15 -13 16 -12 3 4 -13 16 -21 21 -21
13z"/>
<path d="M1221 5967 c-8 -10 -7 -14 2 -14 8 0 14 6 14 14 0 7 -1 13 -2 13 -2
0 -8 -6 -14 -13z"/>
<path d="M1189 5923 c-13 -16 -12 -17 4 -4 9 7 17 15 17 17 0 8 -8 3 -21 -13z"/>
<path d="M1176 5888 c3 -5 10 -6 15 -3 13 9 11 12 -6 12 -8 0 -12 -4 -9 -9z"/>
<path d="M199 5873 c-13 -16 -12 -17 4 -4 16 13 21 21 13 21 -2 0 -10 -8 -17
-17z"/>
<path d="M121 5767 c-13 -21 -12 -21 5 -5 10 10 16 20 13 22 -3 3 -11 -5 -18
-17z"/>
<path d="M1046 5754 c-5 -13 -4 -14 7 -6 8 7 18 8 22 4 5 -4 5 -1 1 6 -10 17
-23 15 -30 -4z"/>
<path d="M4276 5761 c-3 -5 1 -11 9 -14 9 -4 12 -1 8 9 -6 16 -10 17 -17 5z"/>
<path d="M1029 5713 c-13 -16 -12 -17 4 -4 16 13 21 21 13 21 -2 0 -10 -8 -17
-17z"/>
<path d="M963 5645 c0 -8 4 -12 9 -9 5 3 6 10 3 15 -9 13 -12 11 -12 -6z"/>
<path d="M806 5603 c-6 -14 -5 -15 5 -6 7 7 10 15 7 18 -3 3 -9 -2 -12 -12z"/>
<path d="M4181 5564 c0 -11 3 -14 6 -6 3 7 2 16 -1 19 -3 4 -6 -2 -5 -13z"/>
<path d="M12446 5568 c3 -5 10 -6 15 -3 13 9 11 12 -6 12 -8 0 -12 -4 -9 -9z"/>
<path d="M655 5439 c-4 -6 -5 -12 -2 -15 2 -3 7 2 10 11 7 17 1 20 -8 4z"/>
<path d="M777 5427 c3 -5 -1 -13 -8 -18 -10 -6 -10 -9 -2 -9 7 0 17 8 22 18 7
14 6 19 -4 19 -8 0 -11 -5 -8 -10z"/>
<path d="M626 5413 c-6 -14 -5 -15 5 -6 7 7 10 15 7 18 -3 3 -9 -2 -12 -12z"/>
<path d="M3810 5415 c-19 -22 -8 -25 13 -3 9 10 13 18 8 18 -5 0 -14 -7 -21
-15z"/>
<path d="M11745 5390 c3 -5 11 -10 16 -10 6 0 7 5 4 10 -3 6 -11 10 -16 10 -6
0 -7 -4 -4 -10z"/>
<path d="M12225 5380 c3 -5 8 -10 11 -10 2 0 4 5 4 10 0 6 -5 10 -11 10 -5 0
-7 -4 -4 -10z"/>
<path d="M11718 5373 c7 -3 16 -2 19 1 4 3 -2 6 -13 5 -11 0 -14 -3 -6 -6z"/>
<path d="M587 5359 c7 -7 15 -10 18 -7 3 3 -2 9 -12 12 -14 6 -15 5 -6 -5z"/>
<path d="M11938 5343 c6 -2 9 -10 6 -15 -4 -7 -2 -8 5 -4 13 9 5 26 -12 25 -9
0 -8 -2 1 -6z"/>
<path d="M12290 5336 c0 -2 7 -7 16 -10 8 -3 12 -2 9 4 -6 10 -25 14 -25 6z"/>
<path d="M8880 5311 c0 -6 4 -13 10 -16 6 -3 7 1 4 9 -7 18 -14 21 -14 7z"/>
<path d="M646 5293 c-6 -14 -5 -15 5 -6 7 7 10 15 7 18 -3 3 -9 -2 -12 -12z"/>
<path d="M12050 5295 c0 -7 30 -13 34 -7 3 4 -4 9 -15 9 -10 1 -19 0 -19 -2z"/>
<path d="M514 5268 l-19 -23 23 19 c21 18 27 26 19 26 -2 0 -12 -10 -23 -22z"/>
<path d="M12274 5253 c2 -9 8 -18 15 -19 6 -1 7 0 1 3 -5 2 -8 9 -5 13 3 5 1
11 -4 14 -5 4 -8 -2 -7 -11z"/>
<path d="M9346 5245 c4 -8 8 -15 10 -15 2 0 4 7 4 15 0 8 -4 15 -10 15 -5 0
-7 -7 -4 -15z"/>
<path d="M9400 5250 c0 -5 -7 -7 -15 -4 -8 4 -15 1 -15 -5 0 -6 6 -12 13 -12
6 -1 24 -3 40 -5 15 -1 27 2 27 8 0 6 -10 8 -25 4 -19 -5 -23 -3 -19 9 4 8 3
15 0 15 -3 0 -6 -4 -6 -10z"/>
<path d="M9314 5238 c-21 -33 -8 -52 16 -23 9 11 10 19 3 26 -8 8 -13 7 -19
-3z"/>
<path d="M12428 5237 c14 -6 26 -7 32 -1 5 5 -4 9 -23 10 -30 1 -30 1 -9 -9z"/>
<path d="M486 5228 c3 -5 10 -6 15 -3 13 9 11 12 -6 12 -8 0 -12 -4 -9 -9z"/>
<path d="M12159 5212 c29 -29 55 -48 47 -34 -14 24 13 12 34 -15 12 -16 18
-22 14 -14 -3 7 0 18 7 23 11 8 10 9 -3 4 -11 -3 -23 2 -31 14 -7 10 -22 18
-32 17 -11 -1 -19 3 -18 8 1 6 -7 11 -17 12 -18 2 -18 1 -1 -15z"/>
<path d="M9440 5210 c-13 -8 -13 -10 1 -10 12 0 16 -8 13 -35 -1 -19 -5 -39
-9 -45 -3 -5 -1 -10 5 -10 7 0 9 -7 6 -16 -3 -9 -2 -12 5 -9 5 4 7 16 3 27 -4
13 -2 18 4 14 6 -4 7 6 2 29 -5 21 -4 35 2 37 6 2 4 9 -4 15 -9 8 -19 9 -28 3z"/>
<path d="M11766 5203 c-6 -14 -5 -15 5 -6 7 7 10 15 7 18 -3 3 -9 -2 -12 -12z"/>
<path d="M11807 5189 c4 -13 8 -18 11 -10 2 7 -1 18 -6 23 -8 8 -9 4 -5 -13z"/>
<path d="M9347 5177 c3 -5 8 -6 11 -3 3 4 16 -1 30 -10 13 -8 26 -13 29 -10 3
3 -2 8 -11 12 -9 3 -14 10 -11 14 3 4 -8 7 -24 6 -16 0 -27 -4 -24 -9z"/>
<path d="M9325 5160 c3 -5 8 -10 11 -10 2 0 4 5 4 10 0 6 -5 10 -11 10 -5 0
-7 -4 -4 -10z"/>
<path d="M11667 5156 c-4 -10 -1 -13 8 -9 8 3 12 9 9 14 -7 12 -11 11 -17 -5z"/>
<path d="M535 5151 c-3 -5 -2 -12 3 -15 5 -3 9 1 9 9 0 17 -3 19 -12 6z"/>
<path d="M12420 5150 c0 -5 5 -10 11 -10 5 0 7 5 4 10 -3 6 -8 10 -11 10 -2 0
-4 -4 -4 -10z"/>
<path d="M120 5136 c7 -7 13 -7 20 0 6 6 3 10 -10 10 -13 0 -16 -4 -10 -10z"/>
<path d="M9306 5122 c-8 -24 16 -62 38 -62 6 0 3 5 -7 11 -9 6 -15 14 -12 19
3 4 1 19 -4 31 l-8 24 -7 -23z"/>
<path d="M9411 5124 c0 -11 3 -14 6 -6 3 7 2 16 -1 19 -3 4 -6 -2 -5 -13z"/>
<path d="M11615 5129 c-3 -4 2 -6 10 -5 21 3 28 13 10 13 -9 0 -18 -4 -20 -8z"/>
<path d="M11585 5119 c-4 -6 -5 -12 -2 -15 2 -3 7 2 10 11 7 17 1 20 -8 4z"/>
<path d="M371 5098 c-13 -20 -12 -22 1 -11 8 7 18 10 22 6 4 -4 4 0 0 10 -8
21 -6 21 -23 -5z"/>
<path d="M205 5100 c-3 -6 1 -7 9 -4 18 7 21 14 7 14 -6 0 -13 -4 -16 -10z"/>
<path d="M11505 5091 c-3 -5 0 -13 6 -17 7 -4 9 -3 5 4 -3 5 0 13 6 15 9 4 10
6 1 6 -6 1 -14 -3 -18 -8z"/>
<path d="M12367 5082 c12 -11 19 -23 15 -27 -4 -5 -1 -5 6 -1 17 10 16 11 -15
30 l-28 17 22 -19z"/>
<path d="M9390 5074 c-23 -8 -28 -13 -15 -14 17 0 17 -2 5 -10 -20 -13 -10
-12 29 1 30 10 40 24 24 32 -5 2 -24 -2 -43 -9z"/>
<path d="M12020 5040 c-10 -19 -10 -20 9 -8 22 13 28 28 11 28 -5 0 -14 -9
-20 -20z"/>
<path d="M277 5039 c7 -7 15 -10 18 -7 3 3 -2 9 -12 12 -14 6 -15 5 -6 -5z"/>
<path d="M323 5030 c-2 -23 13 -35 23 -19 5 8 3 9 -6 4 -10 -6 -12 -4 -7 8 3
9 3 18 -1 21 -4 3 -8 -4 -9 -14z"/>
<path d="M95 5030 c-3 -6 1 -7 9 -4 18 7 21 14 7 14 -6 0 -13 -4 -16 -10z"/>
<path d="M440 5020 c-9 -6 -10 -10 -3 -10 6 0 15 5 18 10 8 12 4 12 -15 0z"/>
<path d="M362 4991 c-11 -7 -11 -9 2 -14 10 -4 16 -1 16 8 0 17 -1 17 -18 6z"/>
<path d="M405 4991 c-3 -5 -2 -12 3 -15 5 -3 9 1 9 9 0 17 -3 19 -12 6z"/>
<path d="M51 4973 c12 -15 12 -16 -4 -10 -10 4 -16 3 -12 -2 3 -6 14 -9 25 -8
18 1 18 2 3 19 -20 23 -30 24 -12 1z"/>
<path d="M12218 4938 c5 -5 16 -8 23 -6 8 3 3 7 -10 11 -17 4 -21 3 -13 -5z"/>
<path d="M11336 4923 c-6 -14 -5 -15 5 -6 7 7 10 15 7 18 -3 3 -9 -2 -12 -12z"/>
<path d="M11824 4905 c-10 -8 -14 -15 -8 -15 6 0 17 7 24 15 16 19 9 19 -16 0z"/>
<path d="M12147 4889 c7 -7 15 -10 18 -7 3 3 -2 9 -12 12 -14 6 -15 5 -6 -5z"/>
<path d="M12096 4871 c-4 -5 3 -7 14 -4 23 6 26 13 6 13 -8 0 -17 -4 -20 -9z"/>
<path d="M296 4853 c-6 -14 -5 -15 5 -6 7 7 10 15 7 18 -3 3 -9 -2 -12 -12z"/>
<path d="M12136 4862 c-3 -5 1 -9 9 -9 8 0 12 4 9 9 -3 4 -7 8 -9 8 -2 0 -6
-4 -9 -8z"/>
<path d="M12360 4860 c0 -5 5 -10 11 -10 5 0 7 5 4 10 -3 6 -8 10 -11 10 -2 0
-4 -4 -4 -10z"/>
<path d="M12195 4849 c-4 -6 -5 -12 -2 -15 2 -3 7 2 10 11 7 17 1 20 -8 4z"/>
<path d="M11646 4828 c3 -4 1 -8 -4 -8 -6 0 -13 -7 -16 -15 -5 -13 -1 -12 19
2 28 21 31 30 10 30 -8 0 -12 -4 -9 -9z"/>
<path d="M12100 4825 c33 -19 49 -19 24 0 -10 8 -26 14 -34 14 -9 0 -4 -6 10
-14z"/>
<path d="M12425 4830 c-3 -6 1 -7 9 -4 18 7 21 14 7 14 -6 0 -13 -4 -16 -10z"/>
<path d="M11546 4784 c-6 -15 -4 -15 11 -3 15 13 16 12 9 -6 -5 -15 -4 -17 5
-8 11 11 5 33 -11 33 -4 0 -11 -7 -14 -16z"/>
<path d="M12170 4781 c0 -6 4 -13 10 -16 6 -3 7 1 4 9 -7 18 -14 21 -14 7z"/>
<path d="M12445 4729 c-4 -6 -5 -12 -2 -15 2 -3 7 2 10 11 7 17 1 20 -8 4z"/>
<path d="M12224 4668 c-4 -7 -4 -10 1 -6 4 4 15 2 24 -5 14 -11 14 -10 2 6
-16 20 -18 21 -27 5z"/>
<path d="M95 4650 c-3 -5 -1 -10 4 -10 6 0 11 5 11 10 0 6 -2 10 -4 10 -3 0
-8 -4 -11 -10z"/>
<path d="M8149 4643 c-13 -16 -12 -17 4 -4 16 13 21 21 13 21 -2 0 -10 -8 -17
-17z"/>
<path d="M12335 4610 c-3 -6 1 -7 9 -4 18 7 21 14 7 14 -6 0 -13 -4 -16 -10z"/>
<path d="M7 4485 c-4 -8 -3 -16 1 -19 4 -3 9 4 9 15 2 23 -3 25 -10 4z"/>
<path d="M12450 4436 c0 -2 7 -7 16 -10 8 -3 12 -2 9 4 -6 10 -25 14 -25 6z"/>
<path d="M2209 4393 c-13 -16 -12 -17 4 -4 9 7 17 15 17 17 0 8 -8 3 -21 -13z"/>
<path d="M12420 4359 c0 -5 5 -7 10 -4 6 3 10 8 10 11 0 2 -4 4 -10 4 -5 0
-10 -5 -10 -11z"/>
<path d="M1745 4350 c-3 -6 1 -7 9 -4 18 7 21 14 7 14 -6 0 -13 -4 -16 -10z"/>
<path d="M200 4326 c0 -2 8 -10 18 -17 15 -13 16 -12 3 4 -13 16 -21 21 -21
13z"/>
<path d="M12386 4294 c-8 -22 -4 -25 11 -9 7 8 9 16 4 19 -5 3 -12 -1 -15 -10z"/>
<path d="M45 4290 c-4 -6 -4 -14 -1 -17 3 -3 1 -12 -5 -20 -6 -7 -7 -13 -3
-13 16 0 36 42 26 52 -6 6 -12 6 -17 -2z"/>
<path d="M206 4273 c-6 -14 -5 -15 5 -6 7 7 10 15 7 18 -3 3 -9 -2 -12 -12z"/>
<path d="M170 4255 c-9 -11 -10 -19 -3 -26 8 -8 13 -7 18 2 5 8 4 10 -3 5 -16
-9 -15 7 0 22 7 7 9 12 6 12 -3 0 -11 -7 -18 -15z"/>
<path d="M12355 4250 c-3 -6 1 -7 9 -4 18 7 21 14 7 14 -6 0 -13 -4 -16 -10z"/>
<path d="M12 4221 c-11 -7 -11 -9 0 -14 9 -3 15 1 15 9 0 8 -1 14 -1 14 -1 0
-7 -4 -14 -9z"/>
<path d="M12330 4221 c0 -7 -4 -10 -8 -7 -5 3 -9 -1 -9 -9 0 -8 4 -15 9 -15
11 0 22 29 14 37 -3 4 -6 1 -6 -6z"/>
<path d="M12247 4103 c3 -7 6 -13 8 -13 1 0 7 6 13 13 8 10 6 13 -7 13 -11 0
-17 -6 -14 -13z"/>
<path d="M12417 4113 c-11 -11 -8 -20 7 -20 8 0 12 6 9 14 -6 15 -7 15 -16 6z"/>
<path d="M28 4038 c-7 -17 15 -19 29 -3 4 4 3 5 -4 2 -6 -4 -13 -2 -15 5 -3 8
-6 6 -10 -4z"/>
<path d="M12386 4038 c3 -5 10 -6 15 -3 13 9 11 12 -6 12 -8 0 -12 -4 -9 -9z"/>
<path d="M10814 4029 c-3 -6 -2 -15 3 -20 5 -5 9 -1 9 11 0 23 -2 24 -12 9z"/>
<path d="M12205 4029 c-4 -6 -5 -12 -2 -15 2 -3 7 2 10 11 7 17 1 20 -8 4z"/>
<path d="M1330 3986 c0 -2 7 -7 16 -10 8 -3 12 -2 9 4 -6 10 -25 14 -25 6z"/>
<path d="M12345 3981 c-3 -5 -2 -12 3 -15 5 -3 9 1 9 9 0 17 -3 19 -12 6z"/>
<path d="M12445 3938 c-15 -31 -15 -31 0 -13 9 11 20 19 24 18 4 -1 8 5 8 13
0 24 -16 15 -32 -18z"/>
<path d="M11790 3956 c0 -2 7 -7 16 -10 8 -3 12 -2 9 4 -6 10 -25 14 -25 6z"/>
<path d="M12321 3946 c-9 -10 -8 -15 3 -19 11 -4 13 -1 9 10 -5 12 -3 14 7 8
9 -5 11 -4 6 3 -9 15 -11 15 -25 -2z"/>
<path d="M10881 3945 c0 -5 3 -16 8 -23 7 -11 9 -10 14 3 4 9 3 14 -2 10 -5
-3 -12 1 -14 7 -3 7 -6 9 -6 3z"/>
<path d="M11720 3930 c0 -11 4 -20 9 -20 5 0 7 9 4 20 -3 11 -7 20 -9 20 -2 0
-4 -9 -4 -20z"/>
<path d="M11599 3913 c-12 -16 -12 -17 2 -6 9 7 20 9 24 5 5 -4 5 -1 1 6 -9
16 -11 15 -27 -5z"/>
<path d="M11798 3922 c7 -5 10 -16 6 -25 -3 -9 -11 -14 -17 -10 -6 4 -7 1 -2
-6 6 -10 11 -10 23 2 16 17 10 47 -10 47 -11 0 -11 -2 0 -8z"/>
<path d="M11641 3904 c0 -11 3 -14 6 -6 3 7 2 16 -1 19 -3 4 -6 -2 -5 -13z"/>
<path d="M8866 3898 c3 -5 10 -6 15 -3 13 9 11 12 -6 12 -8 0 -12 -4 -9 -9z"/>
<path d="M10910 3906 c0 -2 8 -10 18 -17 15 -13 16 -12 3 4 -13 16 -21 21 -21
13z"/>
<path d="M12390 3906 c0 -2 7 -7 16 -10 8 -3 12 -2 9 4 -6 10 -25 14 -25 6z"/>
<path d="M11736 3892 c-3 -5 1 -9 9 -9 8 0 12 4 9 9 -3 4 -7 8 -9 8 -2 0 -6
-4 -9 -8z"/>
<path d="M10960 3886 c0 -2 8 -10 18 -17 15 -13 16 -12 3 4 -13 16 -21 21 -21
13z"/>
<path d="M12425 3869 c-4 -13 -10 -17 -14 -11 -4 7 -12 3 -20 -11 -13 -19 -12
-21 1 -10 8 7 17 10 21 7 3 -3 11 4 17 16 6 12 9 24 7 27 -3 2 -8 -5 -12 -18z"/>
<path d="M11805 3810 c-3 -6 1 -7 9 -4 18 7 21 14 7 14 -6 0 -13 -4 -16 -10z"/>
<path d="M12224 3809 c-3 -6 -2 -15 3 -20 5 -5 9 -1 9 11 0 23 -2 24 -12 9z"/>
<path d="M12366 3811 c-4 -5 3 -7 14 -4 23 6 26 13 6 13 -8 0 -17 -4 -20 -9z"/>
<path d="M10989 3773 l-24 -28 28 24 c15 14 27 26 27 28 0 8 -8 1 -31 -24z"/>
<path d="M11780 3780 c-9 -6 -10 -10 -3 -10 6 0 15 5 18 10 8 12 4 12 -15 0z"/>
<path d="M12006 3772 c-3 -5 1 -9 9 -9 8 0 12 4 9 9 -3 4 -7 8 -9 8 -2 0 -6
-4 -9 -8z"/>
<path d="M11800 3761 c0 -10 19 -25 25 -20 1 2 -3 10 -11 17 -8 7 -14 8 -14 3z"/>
<path d="M11660 3741 c0 -6 4 -12 8 -15 5 -3 9 1 9 9 0 8 -4 15 -9 15 -4 0 -8
-4 -8 -9z"/>
<path d="M993 3721 c0 -11 5 -18 9 -15 4 3 5 11 1 19 -7 21 -12 19 -10 -4z"/>
<path d="M12173 3728 c3 -9 1 -19 -6 -22 -9 -3 -9 -5 0 -5 18 -1 23 13 11 29
-8 12 -9 12 -5 -2z"/>
<path d="M11605 3720 c-3 -5 -1 -10 4 -10 6 0 11 5 11 10 0 6 -2 10 -4 10 -3
0 -8 -4 -11 -10z"/>
<path d="M11576 3707 c3 -10 9 -15 12 -12 3 3 0 11 -7 18 -10 9 -11 8 -5 -6z"/>
<path d="M11201 3706 c2 -2 15 -9 29 -15 24 -11 24 -11 6 3 -16 13 -49 24 -35
12z"/>
<path d="M11803 3698 c1 -7 -4 -12 -11 -10 -8 1 -11 -2 -7 -8 5 -8 11 -8 21 1
7 6 11 15 8 20 -8 13 -14 11 -11 -3z"/>
<path d="M11983 3683 c9 -2 23 -2 30 0 6 3 -1 5 -18 5 -16 0 -22 -2 -12 -5z"/>
<path d="M12275 3680 c-3 -5 -1 -10 4 -10 6 0 11 5 11 10 0 6 -2 10 -4 10 -3
0 -8 -4 -11 -10z"/>
<path d="M11590 3676 c0 -2 8 -10 18 -17 15 -13 16 -12 3 4 -13 16 -21 21 -21
13z"/>
<path d="M11685 3670 c-3 -6 1 -7 9 -4 18 7 21 14 7 14 -6 0 -13 -4 -16 -10z"/>
<path d="M11269 3658 c11 -15 41 -15 41 -1 0 3 -6 3 -14 0 -7 -3 -20 0 -27 6
-11 10 -11 9 0 -5z"/>
<path d="M11725 3659 c-11 -16 -1 -19 13 -3 7 8 8 14 3 14 -5 0 -13 -5 -16
-11z"/>
<path d="M12276 3647 c3 -10 9 -15 12 -12 3 3 0 11 -7 18 -10 9 -11 8 -5 -6z"/>
<path d="M12090 3619 c-11 -19 -10 -20 10 -9 11 6 18 15 15 21 -9 13 -13 11
-25 -12z"/>
<path d="M11889 3613 c-13 -16 -12 -17 4 -4 16 13 21 21 13 21 -2 0 -10 -8
-17 -17z"/>
<path d="M11857 3559 c7 -7 15 -10 18 -7 3 3 -2 9 -12 12 -14 6 -15 5 -6 -5z"/>
<path d="M12058 3553 c6 -2 9 -10 6 -15 -4 -7 -2 -8 5 -4 13 9 5 26 -12 25 -9
0 -8 -2 1 -6z"/>
<path d="M12030 3526 c0 -2 7 -7 16 -10 8 -3 12 -2 9 4 -6 10 -25 14 -25 6z"/>
<path d="M12160 3520 c-9 -6 -10 -10 -3 -10 6 0 15 5 18 10 8 12 4 12 -15 0z"/>
<path d="M12110 3510 c-12 -8 -12 -10 -1 -10 11 0 11 -3 0 -17 -11 -15 -11
-16 1 -6 8 7 15 20 16 28 3 18 3 17 -16 5z"/>
<path d="M12000 3480 c-13 -8 -12 -10 3 -10 9 0 17 5 17 10 0 12 -1 12 -20 0z"/>
<path d="M11806 3454 c-8 -22 -4 -25 11 -9 7 8 9 16 4 19 -5 3 -12 -1 -15 -10z"/>
<path d="M11978 3453 c7 -3 16 -2 19 1 4 3 -2 6 -13 5 -11 0 -14 -3 -6 -6z"/>
<path d="M3163 2983 c4 -3 1 -13 -6 -22 -11 -14 -10 -14 5 -2 16 12 16 31 1
31 -4 0 -3 -3 0 -7z"/>
<path d="M7947 2829 c7 -7 15 -10 18 -7 3 3 -2 9 -12 12 -14 6 -15 5 -6 -5z"/>
<path d="M8048 2813 c6 -2 9 -10 6 -15 -4 -7 -2 -8 5 -4 13 9 5 26 -12 25 -9
0 -8 -2 1 -6z"/>
<path d="M8190 2770 c-9 -6 -10 -10 -3 -10 6 0 15 5 18 10 8 12 4 12 -15 0z"/>
<path d="M8290 2752 c0 -5 7 -9 15 -9 8 0 12 4 9 9 -3 4 -9 8 -15 8 -5 0 -9
-4 -9 -8z"/>
<path d="M8456 2748 c3 -5 10 -6 15 -3 13 9 11 12 -6 12 -8 0 -12 -4 -9 -9z"/>
<path d="M8776 2741 c-4 -5 3 -7 14 -4 23 6 26 13 6 13 -8 0 -17 -4 -20 -9z"/>
<path d="M7750 2730 c-8 -5 -10 -10 -5 -10 6 0 17 5 25 10 8 5 11 10 5 10 -5
0 -17 -5 -25 -10z"/>
<path d="M8528 2733 c7 -3 16 -2 19 1 4 3 -2 6 -13 5 -11 0 -14 -3 -6 -6z"/>
<path d="M7706 2708 c3 -5 10 -6 15 -3 13 9 11 12 -6 12 -8 0 -12 -4 -9 -9z"/>
<path d="M8632 2706 c7 -8 15 -12 17 -11 5 6 -10 25 -20 25 -5 0 -4 -6 3 -14z"/>
<path d="M8288 2693 c7 -3 16 -2 19 1 4 3 -2 6 -13 5 -11 0 -14 -3 -6 -6z"/>
<path d="M8425 2689 c-4 -6 -4 -13 -1 -16 3 -4 6 -1 6 5 0 6 8 13 18 15 15 4
15 5 0 6 -9 0 -20 -4 -23 -10z"/>
<path d="M8274 2669 c-3 -6 -2 -15 3 -20 5 -5 9 -1 9 11 0 23 -2 24 -12 9z"/>
<path d="M8518 2643 c7 -3 16 -2 19 1 4 3 -2 6 -13 5 -11 0 -14 -3 -6 -6z"/>
<path d="M8590 2630 c-8 -5 -10 -10 -5 -10 6 0 17 5 25 10 8 5 11 10 5 10 -5
0 -17 -5 -25 -10z"/>
<path d="M7584 2608 l-19 -23 23 19 c12 11 22 21 22 23 0 8 -8 2 -26 -19z"/>
<path d="M8991 2613 c7 -12 15 -20 18 -17 3 2 -3 12 -13 22 -17 16 -18 16 -5
-5z"/>
<path d="M7945 2550 c-13 -6 -15 -9 -5 -9 8 0 22 4 30 9 18 12 2 12 -25 0z"/>
<path d="M8855 2530 c-3 -6 1 -7 9 -4 18 7 21 14 7 14 -6 0 -13 -4 -16 -10z"/>
<path d="M7518 2523 c6 -2 9 -10 6 -15 -4 -7 -2 -8 5 -4 13 9 5 26 -12 25 -9
0 -8 -2 1 -6z"/>
<path d="M8857 2497 c-3 -8 1 -14 8 -14 7 0 11 6 8 14 -3 7 -6 13 -8 13 -2 0
-5 -6 -8 -13z"/>
<path d="M9015 2490 c3 -5 8 -10 11 -10 2 0 4 5 4 10 0 6 -5 10 -11 10 -5 0
-7 -4 -4 -10z"/>
<path d="M7500 2475 c-7 -9 -8 -15 -2 -15 5 0 12 7 16 15 3 8 4 15 2 15 -2 0
-9 -7 -16 -15z"/>
<path d="M8841 2383 c7 -12 15 -20 18 -17 3 2 -3 12 -13 22 -17 16 -18 16 -5
-5z"/>
<path d="M9270 2380 c0 -5 5 -10 11 -10 5 0 7 5 4 10 -3 6 -8 10 -11 10 -2 0
-4 -4 -4 -10z"/>
<path d="M1863 2355 c0 -8 4 -12 9 -9 5 3 6 10 3 15 -9 13 -12 11 -12 -6z"/>
<path d="M7725 2360 c3 -5 8 -10 11 -10 2 0 4 5 4 10 0 6 -5 10 -11 10 -5 0
-7 -4 -4 -10z"/>
<path d="M7686 2345 c4 -8 8 -15 10 -15 2 0 4 7 4 15 0 8 -4 15 -10 15 -5 0
-7 -7 -4 -15z"/>
<path d="M7860 2346 c0 -2 7 -7 16 -10 8 -3 12 -2 9 4 -6 10 -25 14 -25 6z"/>
<path d="M9355 2340 c3 -6 -1 -13 -10 -16 -13 -6 -14 -8 -3 -15 20 -13 31 -11
25 5 -3 8 -1 16 6 19 6 2 3 6 -7 10 -10 4 -15 3 -11 -3z"/>
<path d="M9391 2327 c2 -2 18 -11 34 -21 l30 -17 -24 20 c-13 12 -28 21 -34
21 -6 0 -8 -1 -6 -3z"/>
<path d="M8700 2300 c-9 -6 -10 -10 -3 -10 6 0 15 5 18 10 8 12 4 12 -15 0z"/>
<path d="M7910 2296 c0 -2 7 -7 16 -10 8 -3 12 -2 9 4 -6 10 -25 14 -25 6z"/>
<path d="M9560 2266 c0 -2 7 -7 16 -10 8 -3 12 -2 9 4 -6 10 -25 14 -25 6z"/>
<path d="M8910 2230 c-9 -6 -10 -10 -3 -10 6 0 15 5 18 10 8 12 4 12 -15 0z"/>
<path d="M7560 2210 c0 -5 7 -7 15 -4 8 4 15 8 15 10 0 2 -7 4 -15 4 -8 0 -15
-4 -15 -10z"/>
<path d="M7981 2194 c0 -11 3 -14 6 -6 3 7 2 16 -1 19 -3 4 -6 -2 -5 -13z"/>
<path d="M9636 2202 c-3 -6 2 -16 13 -22 15 -7 22 -7 27 2 4 7 4 10 -1 6 -4
-4 -13 0 -20 9 -8 11 -14 12 -19 5z"/>
<path d="M9585 2189 c-4 -6 -5 -12 -2 -15 2 -3 7 2 10 11 7 17 1 20 -8 4z"/>
<path d="M8260 2131 c0 -6 4 -13 10 -16 6 -3 7 1 4 9 -7 18 -14 21 -14 7z"/>
<path d="M7531 2114 c0 -11 3 -14 6 -6 3 7 2 16 -1 19 -3 4 -6 -2 -5 -13z"/>
<path d="M7775 2120 c-3 -5 -1 -10 4 -10 6 0 11 5 11 10 0 6 -2 10 -4 10 -3 0
-8 -4 -11 -10z"/>
<path d="M9652 2115 c-7 -8 -9 -15 -4 -15 5 0 15 7 22 15 16 19 -1 19 -18 0z"/>
<path d="M9526 2105 c-18 -14 -18 -14 1 -12 11 0 20 7 20 14 0 7 -1 13 -1 13
-1 0 -9 -7 -20 -15z"/>
<path d="M7954 2076 c-10 -22 -10 -24 6 -14 10 7 16 18 13 25 -7 17 -6 17 -19
-11z"/>
<path d="M9497 2079 c7 -7 15 -10 18 -7 3 3 -2 9 -12 12 -14 6 -15 5 -6 -5z"/>
<path d="M9610 2080 c-9 -6 -10 -10 -3 -10 6 0 15 5 18 10 8 12 4 12 -15 0z"/>
<path d="M9346 2037 c3 -10 9 -15 12 -12 3 3 0 11 -7 18 -10 9 -11 8 -5 -6z"/>
<path d="M8130 2030 c0 -5 5 -10 11 -10 5 0 7 5 4 10 -3 6 -8 10 -11 10 -2 0
-4 -4 -4 -10z"/>
<path d="M9540 2030 c-9 -6 -10 -10 -3 -10 6 0 15 5 18 10 8 12 4 12 -15 0z"/>
<path d="M8110 2021 c0 -6 4 -13 10 -16 6 -3 7 1 4 9 -7 18 -14 21 -14 7z"/>
<path d="M9625 2010 c-3 -5 -1 -10 4 -10 6 0 11 5 11 10 0 6 -2 10 -4 10 -3 0
-8 -4 -11 -10z"/>
<path d="M9655 2010 c3 -5 8 -10 11 -10 2 0 4 5 4 10 0 6 -5 10 -11 10 -5 0
-7 -4 -4 -10z"/>
<path d="M7918 2003 c7 -3 16 -2 19 1 4 3 -2 6 -13 5 -11 0 -14 -3 -6 -6z"/>
<path d="M8090 2000 c0 -5 5 -10 11 -10 5 0 7 5 4 10 -3 6 -8 10 -11 10 -2 0
-4 -4 -4 -10z"/>
<path d="M9580 1996 c0 -2 7 -7 16 -10 8 -3 12 -2 9 4 -6 10 -25 14 -25 6z"/>
<path d="M9380 1986 c0 -2 8 -10 18 -17 15 -13 16 -12 3 4 -13 16 -21 21 -21
13z"/>
<path d="M9541 1981 c-7 -5 -9 -11 -5 -14 5 -3 15 1 22 9 14 16 5 18 -17 5z"/>
<path d="M9605 1920 c-3 -6 1 -7 9 -4 18 7 21 14 7 14 -6 0 -13 -4 -16 -10z"/>
<path d="M9644 1901 c0 -17 3 -28 8 -25 5 3 6 9 3 14 -3 4 0 10 7 12 6 2 8 10
4 16 -13 21 -22 13 -22 -17z"/>
<path d="M7788 1913 c7 -3 16 -2 19 1 4 3 -2 6 -13 5 -11 0 -14 -3 -6 -6z"/>
<path d="M9506 1888 c3 -5 10 -6 15 -3 13 9 11 12 -6 12 -8 0 -12 -4 -9 -9z"/>
<path d="M7940 1869 c0 -5 -5 -7 -12 -3 -7 4 -8 3 -4 -4 4 -6 13 -9 21 -6 8 4
12 10 9 15 -7 12 -14 11 -14 -2z"/>
<path d="M8064 1859 c0 -13 3 -15 13 -7 7 6 13 12 13 13 0 2 -6 5 -13 8 -7 3
-13 -3 -13 -14z"/>
<path d="M9365 1870 c-3 -6 1 -7 9 -4 18 7 21 14 7 14 -6 0 -13 -4 -16 -10z"/>
<path d="M9435 1860 c3 -5 8 -10 11 -10 2 0 4 5 4 10 0 6 -5 10 -11 10 -5 0
-7 -4 -4 -10z"/>
<path d="M9396 1851 c-4 -7 -5 -15 -2 -18 9 -9 19 4 14 18 -4 11 -6 11 -12 0z"/>
<path d="M8244 1820 c0 -13 4 -16 10 -10 7 7 7 13 0 20 -6 6 -10 3 -10 -10z"/>
<path d="M8045 1820 c-3 -5 -1 -10 4 -10 6 0 11 5 11 10 0 6 -2 10 -4 10 -3 0
-8 -4 -11 -10z"/>
<path d="M7371 1784 c0 -11 3 -14 6 -6 3 7 2 16 -1 19 -3 4 -6 -2 -5 -13z"/>
<path d="M9361 1774 c0 -11 3 -14 6 -6 3 7 2 16 -1 19 -3 4 -6 -2 -5 -13z"/>
<path d="M8367 1735 c-4 -8 -3 -16 1 -19 4 -3 9 4 9 15 2 23 -3 25 -10 4z"/>
<path d="M8257 1727 c-3 -7 -2 -19 3 -26 5 -10 8 -9 13 2 3 7 2 19 -3 26 -5
10 -8 9 -13 -2z"/>
<path d="M7420 1700 c0 -6 7 -10 15 -10 8 0 15 2 15 4 0 2 -7 6 -15 10 -8 3
-15 1 -15 -4z"/>
<path d="M7336 1687 c3 -10 9 -15 12 -12 3 3 0 11 -7 18 -10 9 -11 8 -5 -6z"/>
<path d="M7900 1694 c0 -5 7 -18 15 -28 8 -11 15 -16 15 -10 0 5 -7 18 -15 28
-8 11 -15 16 -15 10z"/>
<path d="M9468 1693 c6 -2 18 -2 25 0 6 3 1 5 -13 5 -14 0 -19 -2 -12 -5z"/>
<path d="M8340 1671 c0 -6 4 -13 10 -16 6 -3 7 1 4 9 -7 18 -14 21 -14 7z"/>
<path d="M7530 1656 c0 -8 4 -17 9 -20 5 -4 7 3 4 14 -6 23 -13 26 -13 6z"/>
<path d="M7386 1622 c-3 -4 4 -9 15 -9 23 -2 25 3 4 10 -8 4 -16 3 -19 -1z"/>
<path d="M9355 1601 c-3 -5 -2 -12 3 -15 5 -3 9 1 9 9 0 17 -3 19 -12 6z"/>
<path d="M9300 1566 c0 -8 4 -17 9 -20 5 -4 7 3 4 14 -6 23 -13 26 -13 6z"/>
<path d="M7760 1528 c0 -9 5 -20 10 -23 13 -8 13 5 0 25 -8 13 -10 13 -10 -2z"/>
<path d="M9525 1530 c-3 -5 -2 -10 4 -10 5 0 13 5 16 10 3 6 2 10 -4 10 -5 0
-13 -4 -16 -10z"/>
<path d="M9307 1523 c-3 -5 8 -8 23 -8 15 0 26 3 23 8 -2 4 -13 7 -23 7 -10 0
-21 -3 -23 -7z"/>
<path d="M9478 1518 c5 -5 16 -8 23 -6 8 3 3 7 -10 11 -17 4 -21 3 -13 -5z"/>
<path d="M9586 1513 c-6 -14 -5 -15 5 -6 7 7 10 15 7 18 -3 3 -9 -2 -12 -12z"/>
<path d="M9440 1516 c0 -2 7 -7 16 -10 8 -3 12 -2 9 4 -6 10 -25 14 -25 6z"/>
<path d="M7740 1485 c-7 -9 -8 -15 -2 -15 5 0 12 7 16 15 3 8 4 15 2 15 -2 0
-9 -7 -16 -15z"/>
<path d="M9576 1478 c3 -5 10 -6 15 -3 13 9 11 12 -6 12 -8 0 -12 -4 -9 -9z"/>
<path d="M9485 1470 c3 -5 8 -10 11 -10 2 0 4 5 4 10 0 6 -5 10 -11 10 -5 0
-7 -4 -4 -10z"/>
<path d="M9409 1429 l-24 -20 25 13 c14 7 29 11 33 10 5 -1 6 2 2 8 -8 13 -9
13 -36 -11z"/>
<path d="M8004 1425 c3 -23 12 -26 13 -5 1 11 -2 20 -7 20 -4 0 -7 -7 -6 -15z"/>
<path d="M9574 1401 c2 -14 9 -27 17 -29 11 -3 12 -2 1 6 -8 5 -13 12 -12 16
1 4 -1 12 -4 19 -2 6 -3 1 -2 -12z"/>
<path d="M9286 1353 c-6 -14 -5 -15 5 -6 7 7 10 15 7 18 -3 3 -9 -2 -12 -12z"/>
<path d="M9560 1338 c0 -4 7 -8 15 -8 8 0 15 4 15 8 0 5 -7 9 -15 9 -8 0 -15
-4 -15 -9z"/>
<path d="M9312 1311 c-11 -7 -10 -9 3 -14 9 -4 14 -3 10 2 -3 5 1 12 7 14 7 3
9 6 3 6 -5 0 -16 -3 -23 -8z"/>
<path d="M9466 1312 c-3 -5 1 -9 9 -9 8 0 15 4 15 9 0 4 -4 8 -9 8 -6 0 -12
-4 -15 -8z"/>
<path d="M9345 1260 c-3 -5 -3 -10 2 -10 4 0 1 -5 -7 -11 -12 -8 -12 -10 -1
-7 8 2 15 12 17 21 3 19 -2 22 -11 7z"/>
<path d="M7260 1241 c0 -6 4 -13 10 -16 6 -3 7 1 4 9 -7 18 -14 21 -14 7z"/>
<path d="M9406 1217 c-16 -12 -16 -13 2 -13 10 0 19 6 19 13 0 7 -1 13 -2 13
-1 0 -9 -6 -19 -13z"/>
<path d="M9248 1193 c6 -2 18 -2 25 0 6 3 1 5 -13 5 -14 0 -19 -2 -12 -5z"/>
<path d="M9509 1183 c-13 -16 -12 -17 4 -4 16 13 21 21 13 21 -2 0 -10 -8 -17
-17z"/>
<path d="M9304 1158 c-4 -7 -4 -10 1 -6 4 4 15 2 24 -5 14 -11 14 -10 2 6 -16
20 -18 21 -27 5z"/>
<path d="M7465 1110 c-3 -6 1 -7 9 -4 18 7 21 14 7 14 -6 0 -13 -4 -16 -10z"/>
<path d="M9466 1105 c-11 -8 -15 -15 -9 -15 6 0 16 7 23 15 16 19 11 19 -14 0z"/>
<path d="M7500 1101 c0 -5 7 -12 16 -15 14 -5 15 -4 4 9 -14 17 -20 19 -20 6z"/>
<path d="M9190 1070 c0 -5 5 -10 11 -10 5 0 7 5 4 10 -3 6 -8 10 -11 10 -2 0
-4 -4 -4 -10z"/>
<path d="M9493 1065 c0 -7 6 -11 14 -8 7 3 13 6 13 8 0 2 -6 5 -13 8 -8 3 -14
-1 -14 -8z"/>
<path d="M9502 1038 c-7 -7 -12 -16 -12 -21 0 -5 7 -1 16 8 9 9 14 18 12 20
-2 3 -10 -1 -16 -7z"/>
<path d="M7668 1023 c7 -3 16 -2 19 1 4 3 -2 6 -13 5 -11 0 -14 -3 -6 -6z"/>
<path d="M7841 973 c-1 -7 -9 -10 -18 -7 -16 5 -16 4 0 -6 21 -13 32 -8 24 12
-4 9 -6 9 -6 1z"/>
<path d="M9484 971 c4 -5 1 -11 -5 -13 -7 -2 -5 -9 5 -17 14 -12 16 -12 10 4
-6 14 -4 16 7 10 12 -8 12 -6 0 8 -14 18 -26 23 -17 8z"/>
<path d="M7863 954 c0 -7 6 -15 12 -18 6 -2 12 2 12 10 0 7 -6 15 -12 18 -6 2
-12 -2 -12 -10z"/>
<path d="M7900 940 c0 -5 5 -10 11 -10 5 0 7 5 4 10 -3 6 -8 10 -11 10 -2 0
-4 -4 -4 -10z"/>
<path d="M9401 936 c-9 -11 -9 -16 1 -22 7 -4 10 -4 6 1 -4 4 -3 14 3 22 6 7
9 13 6 13 -2 0 -10 -6 -16 -14z"/>
<path d="M7991 913 c7 -12 15 -20 18 -17 3 2 -3 12 -13 22 -17 16 -18 16 -5
-5z"/>
<path d="M9160 905 c-11 -13 -10 -14 4 -9 9 3 16 10 16 15 0 13 -6 11 -20 -6z"/>
<path d="M9447 885 c-10 -9 -13 -23 -9 -33 6 -15 7 -15 10 3 3 11 9 23 15 27
6 4 9 10 5 13 -3 3 -13 -1 -21 -10z"/>
<path d="M9164 876 c-10 -8 -17 -16 -14 -19 3 -2 14 4 24 14 23 22 18 25 -10
5z"/>
<path d="M9300 876 c0 -2 7 -7 16 -10 8 -3 12 -2 9 4 -6 10 -25 14 -25 6z"/>
<path d="M8108 853 c7 -3 16 -2 19 1 4 3 -2 6 -13 5 -11 0 -14 -3 -6 -6z"/>
<path d="M9395 852 c3 -3 -1 -12 -7 -21 -8 -10 -4 -9 10 3 26 23 26 23 7 23
-8 0 -13 -3 -10 -5z"/>
<path d="M9315 800 c3 -5 8 -10 11 -10 2 0 4 5 4 10 0 6 -5 10 -11 10 -5 0 -7
-4 -4 -10z"/>
<path d="M8325 780 c27 -12 43 -12 25 0 -8 5 -22 9 -30 9 -10 0 -8 -3 5 -9z"/>
<path d="M8378 783 c6 -2 18 -2 25 0 6 3 1 5 -13 5 -14 0 -19 -2 -12 -5z"/>
<path d="M6974 754 c-18 -14 -18 -15 4 -4 12 6 22 13 22 15 0 8 -5 6 -26 -11z"/>
<path d="M8430 760 c-9 -6 -10 -10 -3 -10 6 0 15 5 18 10 8 12 4 12 -15 0z"/>
<path d="M7017 749 c7 -7 15 -10 18 -7 3 3 -2 9 -12 12 -14 6 -15 5 -6 -5z"/>
<path d="M8455 750 c-3 -5 -1 -10 4 -10 6 0 11 5 11 10 0 6 -2 10 -4 10 -3 0
-8 -4 -11 -10z"/>
<path d="M9350 752 c0 -5 7 -9 15 -9 8 0 12 4 9 9 -3 4 -9 8 -15 8 -5 0 -9 -4
-9 -8z"/>
<path d="M9110 740 c0 -5 5 -10 10 -10 6 0 10 5 10 10 0 6 -4 10 -10 10 -5 0
-10 -4 -10 -10z"/>
<path d="M9310 736 c0 -2 7 -7 16 -10 8 -3 12 -2 9 4 -6 10 -25 14 -25 6z"/>
<path d="M9255 690 c3 -5 8 -10 11 -10 2 0 4 5 4 10 0 6 -5 10 -11 10 -5 0 -7
-4 -4 -10z"/>
<path d="M7077 671 c-4 -17 -3 -21 5 -13 5 5 8 16 6 23 -3 8 -7 3 -11 -10z"/>
<path d="M9184 673 c4 -4 16 -8 28 -10 28 -4 18 6 -12 12 -12 2 -20 1 -16 -2z"/>
<path d="M6905 629 c-4 -6 -4 -13 -1 -16 3 -3 0 -13 -6 -22 -8 -10 -4 -9 10 3
23 20 30 32 12 21 -5 -3 -10 -2 -10 4 0 5 6 12 13 14 9 4 9 6 0 6 -6 1 -15 -4
-18 -10z"/>
<path d="M6985 630 c3 -5 8 -10 11 -10 2 0 4 5 4 10 0 6 -5 10 -11 10 -5 0 -7
-4 -4 -10z"/>
<path d="M8980 636 c0 -2 7 -7 16 -10 8 -3 12 -2 9 4 -6 10 -25 14 -25 6z"/>
<path d="M6726 605 c-9 -26 -7 -32 5 -12 6 10 9 21 6 23 -2 3 -7 -2 -11 -11z"/>
<path d="M7047 521 c-4 -17 -3 -21 5 -13 5 5 8 16 6 23 -3 8 -7 3 -11 -10z"/>
<path d="M6950 501 c13 -10 13 -11 0 -11 -11 0 -11 -3 3 -11 14 -8 22 -8 30 0
13 13 10 16 -23 25 -19 6 -21 5 -10 -3z"/>
<path d="M6746 447 c3 -10 9 -15 12 -12 3 3 0 11 -7 18 -10 9 -11 8 -5 -6z"/>
<path d="M6789 417 c6 -8 9 -16 6 -19 -3 -2 2 -5 10 -5 13 0 13 3 -2 19 -19
21 -31 25 -14 5z"/>
<path d="M7041 392 c-7 -13 -6 -19 2 -19 7 0 13 9 13 19 0 10 -1 18 -3 18 -1
0 -7 -8 -12 -18z"/>
<path d="M6838 363 c7 -3 16 -2 19 1 4 3 -2 6 -13 5 -11 0 -14 -3 -6 -6z"/>
<path d="M6968 333 c7 -3 16 -2 19 1 4 3 -2 6 -13 5 -11 0 -14 -3 -6 -6z"/>
<path d="M10160 220 c-9 -6 -10 -10 -3 -10 6 0 15 5 18 10 8 12 4 12 -15 0z"/>
</g>
</svg>
